<svg width="56" height="88" viewBox="0 0 56 88" fill="none" xmlns="http://www.w3.org/2000/svg">
<path d="M6.2679 3.20323C6.2679 4.01603 5.94502 4.79554 5.37028 5.37028C4.79554 5.94502 4.01603 6.2679 3.20323 6.2679C2.5776 6.28165 1.96217 6.10782 1.43619 5.76878C0.910211 5.42974 0.497765 4.94102 0.251949 4.36554C0.0061334 3.79006 -0.0617971 3.15417 0.056912 2.53975C0.175621 1.92533 0.475526 1.36051 0.918021 0.918018C1.36051 0.475524 1.92533 0.175618 2.53975 0.0569088C3.15417 -0.0618003 3.79006 0.00614347 4.36554 0.25196C4.94102 0.497776 5.42974 0.910208 5.76878 1.43619C6.10782 1.96217 6.28165 2.5776 6.2679 3.20323Z" fill="#1AC1A3"/>
<path d="M6.2679 19.4718C6.2679 20.2846 5.94502 21.0641 5.37028 21.6388C4.79554 22.2136 4.01603 22.5365 3.20323 22.5365C2.5776 22.5502 1.96217 22.3764 1.43619 22.0373C0.910211 21.6983 0.497765 21.2096 0.251949 20.6341C0.0061334 20.0586 -0.0617971 19.4227 0.056912 18.8083C0.175621 18.1939 0.475526 17.6291 0.918021 17.1866C1.36051 16.7441 1.92533 16.4442 2.53975 16.3255C3.15417 16.2068 3.79006 16.2747 4.36554 16.5205C4.94102 16.7663 5.42974 17.1788 5.76878 17.7047C6.10782 18.2307 6.28165 18.8462 6.2679 19.4718Z" fill="#1AC1A3"/>
<path d="M6.2679 35.7403C6.2679 36.5531 5.94502 37.3327 5.37028 37.9074C4.79554 38.4821 4.01603 38.805 3.20323 38.805C2.5776 38.8188 1.96217 38.6449 1.43619 38.3059C0.910211 37.9669 0.497765 37.4781 0.251949 36.9026C0.0061334 36.3272 -0.0617971 35.6913 0.056912 35.0769C0.175621 34.4624 0.475526 33.8976 0.918021 33.4551C1.36051 33.0126 1.92533 32.7127 2.53975 32.594C3.15417 32.4753 3.79006 32.5433 4.36554 32.7891C4.94102 33.0349 5.42974 33.4473 5.76878 33.9733C6.10782 34.4993 6.28165 35.1147 6.2679 35.7403Z" fill="#1AC1A3"/>
<path d="M6.2679 52.0089C6.2679 52.8217 5.94502 53.6012 5.37028 54.1759C4.79554 54.7507 4.01603 55.0736 3.20323 55.0736C2.5776 55.0873 1.96217 54.9135 1.43619 54.5744C0.910211 54.2354 0.497765 53.7467 0.251949 53.1712C0.0061334 52.5957 -0.0617971 51.9598 0.056912 51.3454C0.175621 50.731 0.475526 50.1662 0.918021 49.7237C1.36051 49.2812 1.92533 48.9813 2.53975 48.8626C3.15417 48.7439 3.79006 48.8118 4.36554 49.0576C4.94102 49.3034 5.42974 49.7159 5.76878 50.2419C6.10782 50.7678 6.28165 51.3833 6.2679 52.0089Z" fill="#1AC1A3"/>
<path d="M6.2679 68.2774C6.2679 69.0903 5.94502 69.8698 5.37028 70.4445C4.79554 71.0192 4.01603 71.3421 3.20323 71.3421C2.5776 71.3559 1.96217 71.182 1.43619 70.843C0.910211 70.504 0.497765 70.0152 0.251949 69.4398C0.0061334 68.8643 -0.0617971 68.2284 0.056912 67.614C0.175621 66.9995 0.475526 66.4347 0.918021 65.9922C1.36051 65.5497 1.92533 65.2498 2.53975 65.1311C3.15417 65.0124 3.79006 65.0804 4.36554 65.3262C4.94102 65.572 5.42974 65.9844 5.76878 66.5104C6.10782 67.0364 6.28165 67.6518 6.2679 68.2774Z" fill="#1AC1A3"/>
<path d="M6.2679 84.2032C6.2679 85.016 5.94502 85.7955 5.37028 86.3703C4.79554 86.945 4.01603 87.2679 3.20323 87.2679C2.5776 87.2817 1.96217 87.1078 1.43619 86.7688C0.910211 86.4297 0.497765 85.941 0.251949 85.3655C0.0061334 84.7901 -0.0617971 84.1542 0.056912 83.5397C0.175621 82.9253 0.475526 82.3605 0.918021 81.918C1.36051 81.4755 1.92533 81.1756 2.53975 81.0569C3.15417 80.9382 3.79006 81.0061 4.36554 81.252C4.94102 81.4978 5.42974 81.9102 5.76878 82.4362C6.10782 82.9622 6.28165 83.5776 6.2679 84.2032Z" fill="#1AC1A3"/>
<path d="M22.5366 3.20323C22.5366 4.01603 22.2137 4.79554 21.639 5.37028C21.0642 5.94502 20.2847 6.2679 19.4719 6.2679C18.8463 6.28165 18.2308 6.10782 17.7049 5.76878C17.1789 5.42974 16.7664 4.94102 16.5206 4.36554C16.2748 3.79006 16.2069 3.15417 16.3256 2.53975C16.4443 1.92533 16.7442 1.36051 17.1867 0.918018C17.6292 0.475524 18.194 0.175618 18.8084 0.0569088C19.4228 -0.0618003 20.0587 0.00614347 20.6342 0.25196C21.2097 0.497776 21.6984 0.910208 22.0375 1.43619C22.3765 1.96217 22.5503 2.5776 22.5366 3.20323Z" fill="#1AC1A3"/>
<path d="M22.5366 19.4718C22.5366 20.2846 22.2137 21.0641 21.639 21.6388C21.0642 22.2136 20.2847 22.5365 19.4719 22.5365C18.8463 22.5502 18.2308 22.3764 17.7049 22.0373C17.1789 21.6983 16.7664 21.2096 16.5206 20.6341C16.2748 20.0586 16.2069 19.4227 16.3256 18.8083C16.4443 18.1939 16.7442 17.6291 17.1867 17.1866C17.6292 16.7441 18.194 16.4442 18.8084 16.3255C19.4228 16.2068 20.0587 16.2747 20.6342 16.5205C21.2097 16.7663 21.6984 17.1788 22.0375 17.7047C22.3765 18.2307 22.5503 18.8462 22.5366 19.4718Z" fill="#1AC1A3"/>
<path d="M22.5366 35.7403C22.5366 36.5531 22.2137 37.3327 21.639 37.9074C21.0642 38.4821 20.2847 38.805 19.4719 38.805C18.8463 38.8188 18.2308 38.6449 17.7049 38.3059C17.1789 37.9669 16.7664 37.4781 16.5206 36.9026C16.2748 36.3272 16.2069 35.6913 16.3256 35.0769C16.4443 34.4624 16.7442 33.8976 17.1867 33.4551C17.6292 33.0126 18.194 32.7127 18.8084 32.594C19.4228 32.4753 20.0587 32.5433 20.6342 32.7891C21.2097 33.0349 21.6984 33.4473 22.0375 33.9733C22.3765 34.4993 22.5503 35.1147 22.5366 35.7403Z" fill="#1AC1A3"/>
<path d="M22.5366 52.0089C22.5366 52.8217 22.2137 53.6012 21.639 54.1759C21.0642 54.7507 20.2847 55.0736 19.4719 55.0736C18.8463 55.0873 18.2308 54.9135 17.7049 54.5744C17.1789 54.2354 16.7664 53.7467 16.5206 53.1712C16.2748 52.5957 16.2069 51.9598 16.3256 51.3454C16.4443 50.731 16.7442 50.1662 17.1867 49.7237C17.6292 49.2812 18.194 48.9813 18.8084 48.8626C19.4228 48.7439 20.0587 48.8118 20.6342 49.0576C21.2097 49.3034 21.6984 49.7159 22.0375 50.2419C22.3765 50.7678 22.5503 51.3833 22.5366 52.0089Z" fill="#1AC1A3"/>
<path d="M22.5366 68.2774C22.5366 69.0903 22.2137 69.8698 21.639 70.4445C21.0642 71.0192 20.2847 71.3421 19.4719 71.3421C18.8463 71.3559 18.2308 71.182 17.7049 70.843C17.1789 70.504 16.7664 70.0152 16.5206 69.4398C16.2748 68.8643 16.2069 68.2284 16.3256 67.614C16.4443 66.9995 16.7442 66.4347 17.1867 65.9922C17.6292 65.5497 18.194 65.2498 18.8084 65.1311C19.4228 65.0124 20.0587 65.0804 20.6342 65.3262C21.2097 65.572 21.6984 65.9844 22.0375 66.5104C22.3765 67.0364 22.5503 67.6518 22.5366 68.2774Z" fill="#1AC1A3"/>
<path d="M22.5366 84.2032C22.5366 85.016 22.2137 85.7955 21.639 86.3703C21.0642 86.945 20.2847 87.2679 19.4719 87.2679C18.8463 87.2817 18.2308 87.1078 17.7049 86.7688C17.1789 86.4297 16.7664 85.941 16.5206 85.3655C16.2748 84.7901 16.2069 84.1542 16.3256 83.5397C16.4443 82.9253 16.7442 82.3605 17.1867 81.918C17.6292 81.4755 18.194 81.1756 18.8084 81.0569C19.4228 80.9382 20.0587 81.0061 20.6342 81.252C21.2097 81.4978 21.6984 81.9102 22.0375 82.4362C22.3765 82.9622 22.5503 83.5776 22.5366 84.2032Z" fill="#1AC1A3"/>
<path d="M38.8052 3.20323C38.8052 4.01603 38.4823 4.79554 37.9076 5.37028C37.3328 5.94502 36.5533 6.2679 35.7405 6.2679C35.1149 6.28165 34.4995 6.10782 33.9735 5.76878C33.4475 5.42974 33.0351 4.94102 32.7892 4.36554C32.5434 3.79006 32.4755 3.15417 32.5942 2.53975C32.7129 1.92533 33.0128 1.36051 33.4553 0.918018C33.8978 0.475524 34.4626 0.175618 35.077 0.0569088C35.6915 -0.0618003 36.3274 0.00614347 36.9028 0.25196C37.4783 0.497776 37.967 0.910208 38.3061 1.43619C38.6451 1.96217 38.8189 2.5776 38.8052 3.20323Z" fill="#1AC1A3"/>
<path d="M38.8052 19.4718C38.8052 20.2846 38.4823 21.0641 37.9076 21.6388C37.3328 22.2136 36.5533 22.5365 35.7405 22.5365C35.1149 22.5502 34.4995 22.3764 33.9735 22.0373C33.4475 21.6983 33.0351 21.2096 32.7892 20.6341C32.5434 20.0586 32.4755 19.4227 32.5942 18.8083C32.7129 18.1939 33.0128 17.6291 33.4553 17.1866C33.8978 16.7441 34.4626 16.4442 35.077 16.3255C35.6915 16.2068 36.3274 16.2747 36.9028 16.5205C37.4783 16.7663 37.967 17.1788 38.3061 17.7047C38.6451 18.2307 38.8189 18.8462 38.8052 19.4718Z" fill="#1AC1A3"/>
<path d="M38.8052 35.7403C38.8052 36.5531 38.4823 37.3327 37.9076 37.9074C37.3328 38.4821 36.5533 38.805 35.7405 38.805C35.1149 38.8188 34.4995 38.6449 33.9735 38.3059C33.4475 37.9669 33.0351 37.4781 32.7892 36.9026C32.5434 36.3272 32.4755 35.6913 32.5942 35.0769C32.7129 34.4624 33.0128 33.8976 33.4553 33.4551C33.8978 33.0126 34.4626 32.7127 35.077 32.594C35.6915 32.4753 36.3274 32.5433 36.9028 32.7891C37.4783 33.0349 37.967 33.4473 38.3061 33.9733C38.6451 34.4993 38.8189 35.1147 38.8052 35.7403Z" fill="#1AC1A3"/>
<path d="M38.8052 52.0089C38.8052 52.8217 38.4823 53.6012 37.9076 54.1759C37.3328 54.7507 36.5533 55.0736 35.7405 55.0736C35.1149 55.0873 34.4995 54.9135 33.9735 54.5744C33.4475 54.2354 33.0351 53.7467 32.7892 53.1712C32.5434 52.5957 32.4755 51.9598 32.5942 51.3454C32.7129 50.731 33.0128 50.1662 33.4553 49.7237C33.8978 49.2812 34.4626 48.9813 35.077 48.8626C35.6915 48.7439 36.3274 48.8118 36.9028 49.0576C37.4783 49.3034 37.967 49.7159 38.3061 50.2419C38.6451 50.7678 38.8189 51.3833 38.8052 52.0089Z" fill="#1AC1A3"/>
<path d="M38.8052 68.2774C38.8052 69.0903 38.4823 69.8698 37.9076 70.4445C37.3328 71.0192 36.5533 71.3421 35.7405 71.3421C35.1149 71.3559 34.4995 71.182 33.9735 70.843C33.4475 70.504 33.0351 70.0152 32.7892 69.4398C32.5434 68.8643 32.4755 68.2284 32.5942 67.614C32.7129 66.9995 33.0128 66.4347 33.4553 65.9922C33.8978 65.5497 34.4626 65.2498 35.077 65.1311C35.6915 65.0124 36.3274 65.0804 36.9028 65.3262C37.4783 65.572 37.967 65.9844 38.3061 66.5104C38.6451 67.0364 38.8189 67.6518 38.8052 68.2774Z" fill="#1AC1A3"/>
<path d="M38.8052 84.2032C38.8052 85.016 38.4823 85.7955 37.9076 86.3703C37.3328 86.945 36.5533 87.2679 35.7405 87.2679C35.1149 87.2817 34.4995 87.1078 33.9735 86.7688C33.4475 86.4297 33.0351 85.941 32.7892 85.3655C32.5434 84.7901 32.4755 84.1542 32.5942 83.5397C32.7129 82.9253 33.0128 82.3605 33.4553 81.918C33.8978 81.4755 34.4626 81.1756 35.077 81.0569C35.6915 80.9382 36.3274 81.0061 36.9028 81.252C37.4783 81.4978 37.967 81.9102 38.3061 82.4362C38.6451 82.9622 38.8189 83.5776 38.8052 84.2032Z" fill="#1AC1A3"/>
<path d="M55.0739 3.20323C55.0739 4.01603 54.751 4.79554 54.1763 5.37028C53.6015 5.94502 52.822 6.2679 52.0092 6.2679C51.3836 6.28165 50.7681 6.10782 50.2422 5.76878C49.7162 5.42974 49.3037 4.94102 49.0579 4.36554C48.8121 3.79006 48.7442 3.15417 48.8629 2.53975C48.9816 1.92533 49.2815 1.36051 49.724 0.918018C50.1665 0.475524 50.7313 0.175618 51.3457 0.0569088C51.9601 -0.0618003 52.596 0.00614347 53.1715 0.25196C53.747 0.497776 54.2357 0.910208 54.5747 1.43619C54.9138 1.96217 55.0876 2.5776 55.0739 3.20323Z" fill="#1AC1A3"/>
<path d="M55.0739 19.4718C55.0739 20.2846 54.751 21.0641 54.1763 21.6388C53.6015 22.2136 52.822 22.5365 52.0092 22.5365C51.3836 22.5502 50.7681 22.3764 50.2422 22.0373C49.7162 21.6983 49.3037 21.2096 49.0579 20.6341C48.8121 20.0586 48.7442 19.4227 48.8629 18.8083C48.9816 18.1939 49.2815 17.6291 49.724 17.1866C50.1665 16.7441 50.7313 16.4442 51.3457 16.3255C51.9601 16.2068 52.596 16.2747 53.1715 16.5205C53.747 16.7663 54.2357 17.1788 54.5747 17.7047C54.9138 18.2307 55.0876 18.8462 55.0739 19.4718Z" fill="#1AC1A3"/>
<path d="M55.0739 35.7403C55.0739 36.5531 54.751 37.3327 54.1763 37.9074C53.6015 38.4821 52.822 38.805 52.0092 38.805C51.3836 38.8188 50.7681 38.6449 50.2422 38.3059C49.7162 37.9669 49.3037 37.4781 49.0579 36.9026C48.8121 36.3272 48.7442 35.6913 48.8629 35.0769C48.9816 34.4624 49.2815 33.8976 49.724 33.4551C50.1665 33.0126 50.7313 32.7127 51.3457 32.594C51.9601 32.4753 52.596 32.5433 53.1715 32.7891C53.747 33.0349 54.2357 33.4473 54.5747 33.9733C54.9138 34.4993 55.0876 35.1147 55.0739 35.7403Z" fill="#1AC1A3"/>
<path d="M55.0739 52.0089C55.0739 52.8217 54.751 53.6012 54.1763 54.1759C53.6015 54.7507 52.822 55.0736 52.0092 55.0736C51.3836 55.0873 50.7681 54.9135 50.2422 54.5744C49.7162 54.2354 49.3037 53.7467 49.0579 53.1712C48.8121 52.5957 48.7442 51.9598 48.8629 51.3454C48.9816 50.731 49.2815 50.1662 49.724 49.7237C50.1665 49.2812 50.7313 48.9813 51.3457 48.8626C51.9601 48.7439 52.596 48.8118 53.1715 49.0576C53.747 49.3034 54.2357 49.7159 54.5747 50.2419C54.9138 50.7678 55.0876 51.3833 55.0739 52.0089Z" fill="#1AC1A3"/>
<path d="M55.0739 68.2774C55.0739 69.0903 54.751 69.8698 54.1763 70.4445C53.6015 71.0192 52.822 71.3421 52.0092 71.3421C51.3836 71.3559 50.7681 71.182 50.2422 70.843C49.7162 70.504 49.3037 70.0152 49.0579 69.4398C48.8121 68.8643 48.7442 68.2284 48.8629 67.614C48.9816 66.9995 49.2815 66.4347 49.724 65.9922C50.1665 65.5497 50.7313 65.2498 51.3457 65.1311C51.9601 65.0124 52.596 65.0804 53.1715 65.3262C53.747 65.572 54.2357 65.9844 54.5747 66.5104C54.9138 67.0364 55.0876 67.6518 55.0739 68.2774Z" fill="#1AC1A3"/>
<path d="M55.0739 84.2032C55.0739 85.016 54.751 85.7955 54.1763 86.3703C53.6015 86.945 52.822 87.2679 52.0092 87.2679C51.3836 87.2817 50.7681 87.1078 50.2422 86.7688C49.7162 86.4297 49.3037 85.941 49.0579 85.3655C48.8121 84.7901 48.7442 84.1542 48.8629 83.5397C48.9816 82.9253 49.2815 82.3605 49.724 81.918C50.1665 81.4755 50.7313 81.1756 51.3457 81.0569C51.9601 80.9382 52.596 81.0061 53.1715 81.252C53.747 81.4978 54.2357 81.9102 54.5747 82.4362C54.9138 82.9622 55.0876 83.5776 55.0739 84.2032Z" fill="#1AC1A3"/>
</svg>
