<svg width="1040" height="82" viewBox="0 0 1040 82" fill="none" xmlns="http://www.w3.org/2000/svg">
<path d="M23.331 62.9257H53.599V80H0.380513V66.2519L30.0942 19.464H0.934872V2.38973H53.0446V16.1378L23.331 62.9257ZM80.7669 62.9257H111.811V80H63.0274V2.38973H111.257V19.464H80.7669V32.3251H108.485V49.1776H80.7669V62.9257ZM140.446 80L115.167 2.38973H134.57L151.755 59.4887L168.94 2.38973H188.343L163.064 80H140.446ZM257.292 69.9107C249.457 77.6717 239.922 81.5522 228.687 81.5522C217.452 81.5522 207.917 77.6717 200.082 69.9107C192.247 62.1496 188.33 52.5777 188.33 41.1949C188.33 29.812 192.247 20.2401 200.082 12.4791C207.917 4.71804 217.452 0.837527 228.687 0.837527C239.922 0.837527 249.457 4.71804 257.292 12.4791C265.127 20.2401 269.045 29.812 269.045 41.1949C269.045 52.5777 265.127 62.1496 257.292 69.9107ZM212.5 57.8256C216.861 62.1127 222.257 64.2562 228.687 64.2562C235.118 64.2562 240.477 62.1127 244.764 57.8256C249.125 53.5386 251.305 47.995 251.305 41.1949C251.305 34.3947 249.125 28.8511 244.764 24.5641C240.477 20.2771 235.118 18.1335 228.687 18.1335C222.257 18.1335 216.861 20.2771 212.5 24.5641C208.213 28.8511 206.069 34.3947 206.069 41.1949C206.069 47.995 208.213 53.5386 212.5 57.8256ZM317.172 81.4413C305.42 81.4413 295.7 77.5608 288.013 69.7998C280.4 62.0388 276.593 52.5038 276.593 41.1949C276.593 29.8859 280.4 20.351 288.013 12.5899C295.7 4.82891 305.42 0.948398 317.172 0.948398C324.268 0.948398 330.773 2.64843 336.686 6.0485C342.673 9.44857 347.33 14.0313 350.656 19.7966L341.675 25.0076C339.458 20.7205 336.132 17.3205 331.697 14.8074C327.336 12.2204 322.494 10.9269 317.172 10.9269C308.229 10.9269 300.911 13.8095 295.22 19.5749C289.602 25.3402 286.794 32.5469 286.794 41.1949C286.794 49.769 289.602 56.9387 295.22 62.704C300.911 68.4693 308.229 71.352 317.172 71.352C322.494 71.352 327.336 70.0955 331.697 67.5824C336.132 64.9953 339.458 61.5953 341.675 57.3822L350.656 62.4823C347.403 68.2476 342.784 72.8672 336.797 76.3412C330.81 79.7413 324.268 81.4413 317.172 81.4413ZM426.644 69.6889C418.883 77.5239 409.385 81.4413 398.15 81.4413C386.915 81.4413 377.417 77.5239 369.656 69.6889C361.895 61.854 358.015 52.356 358.015 41.1949C358.015 29.9599 361.895 20.4618 369.656 12.7008C377.417 4.86587 386.915 0.948398 398.15 0.948398C409.385 0.948398 418.883 4.86587 426.644 12.7008C434.479 20.4618 438.397 29.9599 438.397 41.1949C438.397 52.356 434.479 61.854 426.644 69.6889ZM376.752 62.704C382.517 68.4693 389.65 71.352 398.15 71.352C406.651 71.352 413.746 68.4693 419.438 62.704C425.203 56.8647 428.086 49.695 428.086 41.1949C428.086 32.6208 425.203 25.4511 419.438 19.6857C413.746 13.8465 406.651 10.9269 398.15 10.9269C389.65 10.9269 382.517 13.8465 376.752 19.6857C371.061 25.4511 368.215 32.6208 368.215 41.1949C368.215 49.695 371.061 56.8647 376.752 62.704ZM496.805 80L479.398 50.2864H461.104V80H450.793V2.38973H481.837C488.489 2.38973 494.181 4.755 498.911 9.48553C503.642 14.1421 506.007 19.7966 506.007 26.4489C506.007 31.4751 504.492 36.0578 501.461 40.197C498.505 44.3362 494.661 47.2559 489.931 48.9559L508.224 80H496.805ZM461.104 12.0356V40.9731H481.837C485.681 40.9731 488.933 39.5687 491.594 36.76C494.329 33.8773 495.696 30.4403 495.696 26.4489C495.696 22.4575 494.329 19.0575 491.594 16.2487C488.933 13.44 485.681 12.0356 481.837 12.0356H461.104ZM546.733 2.38973C553.903 2.38973 559.853 4.79195 564.584 9.5964C569.388 14.3269 571.79 20.2401 571.79 27.3359C571.79 34.3578 569.388 40.2709 564.584 45.0754C559.853 49.8798 553.903 52.282 546.733 52.282H528.883V80H518.572V2.38973H546.733ZM546.733 42.6362C551.02 42.6362 554.568 41.1949 557.377 38.3122C560.186 35.3556 561.59 31.6968 561.59 27.3359C561.59 22.901 560.186 19.2422 557.377 16.3596C554.568 13.4769 551.02 12.0356 546.733 12.0356H528.883V42.6362H546.733ZM647.955 69.6889C640.194 77.5239 630.696 81.4413 619.461 81.4413C608.226 81.4413 598.728 77.5239 590.967 69.6889C583.206 61.854 579.325 52.356 579.325 41.1949C579.325 29.9599 583.206 20.4618 590.967 12.7008C598.728 4.86587 608.226 0.948398 619.461 0.948398C630.696 0.948398 640.194 4.86587 647.955 12.7008C655.79 20.4618 659.707 29.9599 659.707 41.1949C659.707 52.356 655.79 61.854 647.955 69.6889ZM598.063 62.704C603.828 68.4693 610.961 71.352 619.461 71.352C627.961 71.352 635.057 68.4693 640.748 62.704C646.514 56.8647 649.396 49.695 649.396 41.1949C649.396 32.6208 646.514 25.4511 640.748 19.6857C635.057 13.8465 627.961 10.9269 619.461 10.9269C610.961 10.9269 603.828 13.8465 598.063 19.6857C592.371 25.4511 589.526 32.6208 589.526 41.1949C589.526 49.695 592.371 56.8647 598.063 62.704ZM718.115 80L700.708 50.2864H682.414V80H672.103V2.38973H703.148C709.8 2.38973 715.491 4.755 720.222 9.48553C724.952 14.1421 727.318 19.7966 727.318 26.4489C727.318 31.4751 725.802 36.0578 722.772 40.197C719.815 44.3362 715.972 47.2559 711.241 48.9559L729.535 80H718.115ZM682.414 12.0356V40.9731H703.148C706.991 40.9731 710.243 39.5687 712.904 36.76C715.639 33.8773 717.006 30.4403 717.006 26.4489C717.006 22.4575 715.639 19.0575 712.904 16.2487C710.243 13.44 706.991 12.0356 703.148 12.0356H682.414ZM790.994 80L784.675 62.5931H749.75L743.43 80H732.454L761.392 2.38973H773.033L801.971 80H790.994ZM753.298 52.9473H781.127L767.157 14.6965L753.298 52.9473ZM855.167 2.38973V12.1465H832.216V80H822.016V12.1465H799.176V2.38973H855.167ZM865.371 2.38973H875.682V80H865.371V2.38973ZM956.859 69.6889C949.098 77.5239 939.6 81.4413 928.365 81.4413C917.13 81.4413 907.632 77.5239 899.87 69.6889C892.109 61.854 888.229 52.356 888.229 41.1949C888.229 29.9599 892.109 20.4618 899.87 12.7008C907.632 4.86587 917.13 0.948398 928.365 0.948398C939.6 0.948398 949.098 4.86587 956.859 12.7008C964.694 20.4618 968.611 29.9599 968.611 41.1949C968.611 52.356 964.694 61.854 956.859 69.6889ZM906.966 62.704C912.732 68.4693 919.864 71.352 928.365 71.352C936.865 71.352 943.961 68.4693 949.652 62.704C955.417 56.8647 958.3 49.695 958.3 41.1949C958.3 32.6208 955.417 25.4511 949.652 19.6857C943.961 13.8465 936.865 10.9269 928.365 10.9269C919.864 10.9269 912.732 13.8465 906.966 19.6857C901.275 25.4511 898.429 32.6208 898.429 41.1949C898.429 49.695 901.275 56.8647 906.966 62.704ZM1029.24 2.38973H1039.55V80H1031.23L991.318 22.014V80H981.007V2.38973H989.322L1029.24 60.2648V2.38973Z" fill="white"/>
</svg>
