<svg width="40" height="41" viewBox="0 0 40 41" fill="none" xmlns="http://www.w3.org/2000/svg">
<g clip-path="url(#clip0)">
<path d="M39.1477 29.0482L38.4379 28.0936C38.1195 27.6654 38.0044 27.1178 38.1299 26.599C38.4192 25.4031 38.7765 23.0467 37.7003 20.9293C37.4643 20.4651 37.2903 19.9701 37.2043 19.4565C36.6051 15.879 38.4101 11.0581 38.4447 10.9486C39.0771 8.94981 39.3282 8.15223 37.8002 7.41723C36.1372 6.61723 34.6596 7.5413 33.797 9.10919C33.6798 9.322 31.9437 12.5429 31.5459 16.7284C28.9749 13.2706 22.861 5.04747 20.8288 2.31434C20.07 1.2938 18.6509 0.979421 17.5661 1.64333C16.3221 2.40481 16.0238 4.04794 16.8742 5.19184C16.8681 5.18356 15.5878 3.46169 15.6245 3.51098C14.8281 2.43989 13.314 2.15715 12.2228 2.92559C11.0942 3.72044 10.8485 5.28372 11.6671 6.38466C13.1262 8.34708 12.7908 7.89591 12.9498 8.10973C12.1084 6.97809 10.4751 6.78247 9.38729 7.71973C8.41049 8.56137 8.28596 10.0333 9.05534 11.0681L11.4246 14.2547C10.5742 13.1108 8.91471 12.9233 7.82721 13.8952C6.87901 14.7425 6.77143 16.1922 7.53018 17.2127C7.91995 17.7368 18.5917 32.09 19.1847 32.8877C20.4053 34.5293 22.0729 35.6422 23.8938 36.183C25.6071 36.692 26.306 38.0443 26.5062 38.256L26.5885 38.3668C27.274 39.2887 28.5771 39.4804 29.4992 38.795L38.7228 31.9372C39.6378 31.2567 39.828 29.9633 39.1477 29.0482Z" fill="#F4D44E"/>
<path d="M30.8005 5.85564C29.793 3.73345 28.3695 1.81861 26.6265 0.241734C26.3829 0.0214217 26.3641 -0.354672 26.5845 -0.598188C26.8048 -0.841781 27.1809 -0.86061 27.4245 -0.640219C29.282 1.04002 30.8 3.08134 31.875 5.34556C32.0159 5.64228 31.8895 5.99697 31.5928 6.13791C31.2974 6.27806 30.942 6.15361 30.8005 5.85564Z" fill="#6E7DFF"/>
<path d="M27.4668 6.7854C26.7645 5.44954 25.8548 4.2254 24.7761 3.16658C24.5417 2.93642 24.5382 2.56002 24.7683 2.32556C24.9984 2.09111 25.3748 2.08775 25.6092 2.31775C26.774 3.46126 27.7589 4.78486 28.5195 6.23204C28.6723 6.52267 28.5605 6.88228 28.2698 7.03509C27.9784 7.18821 27.6193 7.07556 27.4668 6.7854Z" fill="#6E7DFF"/>
<path d="M4.95265 25.3624C3.09491 23.6818 1.57726 21.6411 0.502102 19.3766C0.361165 19.0799 0.487571 18.7252 0.784212 18.5843C1.08085 18.4434 1.43562 18.5698 1.57648 18.8665C2.58413 20.9888 4.00718 22.9032 5.75046 24.4803C5.99406 24.7006 6.01288 25.0767 5.79249 25.3202C5.57296 25.5632 5.19687 25.5834 4.95265 25.3624Z" fill="#6E7DFF"/>
<path d="M6.76781 22.4045C5.60249 21.2606 4.61819 19.9372 3.85741 18.4902C3.7046 18.1995 3.8164 17.84 4.1071 17.6871C4.3978 17.5344 4.75733 17.6461 4.91023 17.9367C5.61273 19.2731 6.52234 20.4969 7.60093 21.5556C7.83531 21.7857 7.83882 22.1622 7.60874 22.3966C7.37906 22.6308 7.00234 22.6348 6.76781 22.4045Z" fill="#6E7DFF"/>
<path d="M11.7727 6.52707C12.6732 7.73809 19.8069 17.3328 19.5657 17.0082C19.9589 17.5371 20.718 17.6214 21.2177 17.192C21.6721 16.8014 21.7472 16.1261 21.3897 15.6452L15.0346 7.09801C15.0319 7.09441 15.0294 7.09098 15.0271 7.08785L15.0184 7.07613C15.015 7.07152 15.0119 7.06738 15.0093 7.06379L15.0027 7.05504C15.0027 7.05504 15.0026 7.05488 15.0026 7.05488L13.7723 5.40035C13.1164 4.51809 13.1444 3.3391 13.762 2.49645C11.8122 2.36981 10.3242 4.57809 11.7727 6.52707Z" fill="#DCBE40"/>
<path d="M16.0433 20.4667C16.4651 21.0341 17.2881 21.1048 17.8006 20.6177C18.1993 20.2387 18.2523 19.6217 17.9241 19.1803C17.0924 18.0617 11.7946 10.9363 11.1606 10.0836C10.5001 9.19544 10.499 7.98536 11.1297 7.12802C9.05123 7.00583 7.79608 9.37466 9.05522 11.0682C12.2149 15.3175 12.7554 16.0447 16.0433 20.4667Z" fill="#DCBE40"/>
<path d="M28.6938 37.3825L28.6114 37.2717C28.4112 37.06 27.7122 35.7078 25.999 35.1987C24.1782 34.6578 22.5105 33.545 21.2899 31.9034C20.6968 31.1058 10.0251 16.7526 9.63537 16.2284C8.97607 15.3416 8.97131 14.1311 9.60341 13.2729C7.53115 13.1519 6.26467 15.5111 7.52998 17.2129C7.91974 17.7371 18.5915 32.0903 19.1845 32.8879C20.4051 34.5295 22.0727 35.6423 23.8936 36.1833C25.6068 36.6922 26.3058 38.0445 26.506 38.2562L26.5884 38.367C27.2739 39.289 28.577 39.4807 29.499 38.7952L30.2735 38.2194C29.6697 38.1929 29.0825 37.9053 28.6938 37.3825Z" fill="#DCBE40"/>
<path d="M18.9796 4.20748C18.3226 3.32389 18.3518 2.14264 18.9722 1.29975C18.5432 1.27139 18.106 1.35608 17.7063 1.56522C17.4989 1.67373 17.3108 1.80951 17.1501 1.96248C17.1498 1.96272 17.1495 1.96295 17.1492 1.96326C16.2982 2.77248 16.1398 4.08904 16.7963 5.081L16.8742 5.19209L23.9122 14.6579C24.3231 15.2106 25.1253 15.2788 25.6237 14.8033C26.0834 14.3645 26.1407 13.6505 25.7566 13.1442L18.9796 4.20748ZM18.3045 3.29951L18.2674 3.24967C18.2798 3.26615 18.2921 3.28287 18.3045 3.29951Z" fill="#DCBE40"/>
<path d="M33.7969 9.10933C33.7238 9.24214 33.0205 10.5478 32.4051 12.5274L32.4045 12.5268C32.034 13.7189 31.6953 15.1556 31.5458 16.7285C32.1981 17.5955 33.5774 17.1738 33.6333 16.0903L33.6511 15.744C34.049 11.5585 35.7851 8.33761 35.9022 8.1248C36.1088 7.74941 36.3509 7.41144 36.6222 7.12472C35.4529 7.10745 34.4491 7.92417 33.7969 9.10933Z" fill="#DCBE40"/>
</g>
<defs>
<clipPath id="clip0">
<rect width="40" height="40.0085" fill="white"/>
</clipPath>
</defs>
</svg>
