<svg width="112" height="27" viewBox="0 0 112 27" fill="none" xmlns="http://www.w3.org/2000/svg">
<path d="M13.3563 13.4C13.3963 12.98 13.4363 12.58 13.4363 12.18C13.4363 11.98 13.3163 11.74 13.3163 11.54C13.3163 11.4 13.4963 11.14 13.6363 11.14C13.6763 11.16 13.7163 11.18 13.7563 11.18C13.7963 11.18 13.8163 11.14 13.8163 11.06C13.7963 10.96 13.7763 10.86 13.7763 10.76C13.7763 10.14 14.2363 9.56 14.2363 8.8C14.2363 8.54 14.1363 8.3 14.1363 8.02C14.1363 7.72 14.2563 7.12 14.2563 6.82C14.2563 6.58 14.0163 6.1 14.0163 5.72C14.0163 5.62 14.0563 5.54 14.0563 5.44C14.0563 5.28 14.0163 5.14 14.0163 5C14.0163 4.56 14.3163 4.5 14.3163 3.82C14.3163 3.56 14.2963 3.2 14.0563 3.2C13.6363 3.2 13.1963 3.64 13.1963 4C13.1963 4.4 13.2563 4.82 13.2563 5.2C13.2563 5.6 13.1163 6.1 13.1163 6.38C13.1163 6.48 13.1963 6.6 13.1963 6.72C13.1963 6.8 13.1563 6.92 13.1363 7.02C13.2363 7.18 13.2563 7.34 13.2563 7.52C13.2563 7.66 13.2363 7.82 13.2363 7.96C13.2363 8.08 13.2563 8.2 13.2563 8.3C13.2563 8.54 13.0563 8.74 13.0563 8.96C13.0363 9.22 12.9563 9.44 12.9563 9.7C12.9563 9.78 12.9763 9.84 12.9763 9.92C12.9763 10.04 12.9163 10.18 12.9163 10.3C12.9163 10.38 12.9763 10.46 12.9763 10.54C12.9763 10.58 12.8963 10.64 12.8163 10.64C12.7963 10.64 12.7763 10.62 12.7563 10.62C12.5163 10.62 12.5563 10.78 12.5563 10.92C12.5563 11.62 12.2363 12.3 12.2363 13.06C12.2363 13.36 12.2163 13.68 11.9163 13.84C11.4363 14.1 11.2563 15.56 10.9963 15.66C10.7363 16.02 10.3163 16.98 9.91633 16.98C9.37633 16.98 9.01633 15.74 8.99633 15.72C8.67633 15.26 8.75633 14.66 8.45633 14.18C8.35633 14.02 8.15633 13.44 8.15633 13.48C8.15633 13.42 8.17633 13.34 8.17633 13.28C8.17633 12.96 8.09633 12.64 8.05633 12.32C7.89633 10.88 8.03633 7.58 7.03633 7.58C5.63633 7.58 4.87633 9.4 4.37633 10.22C3.89633 11 3.43633 11.8 3.15633 12.7C3.07633 12.92 2.87633 13.36 2.67633 13.36C2.31633 13.36 2.45633 12.46 2.25633 12.3C2.05633 12 2.01633 10.56 2.01633 10.48C2.01633 10.3 1.95633 10.12 1.95633 9.94C1.95633 9.86 1.97633 9.78 1.97633 9.72C1.77633 9.56 1.75633 8.92 1.75633 8.86C1.75633 8.46 1.95633 8.04 1.95633 7.62C1.95633 7.52 1.95633 7.44 1.93633 7.34C1.95633 7.28 1.97633 7.22 1.97633 7.16C1.97633 7.04 1.93633 6.92 1.93633 6.8C1.93633 6.66 1.99633 6.52 1.99633 6.36C1.99633 6.22 1.97633 6.08 1.97633 5.94C2.07633 4.7 2.49633 3.26 2.49633 2.28C2.49633 1.7 2.41633 1.3 1.59633 1.3C1.03633 1.3 1.05633 2.98 0.976328 3.44C0.956328 3.52 0.936328 3.58 0.936328 3.66C0.936328 3.72 0.956328 3.8 0.956328 3.86C0.956328 4.04 0.836328 4.2 0.836328 4.38C0.836328 5.8 0.436328 6.96 0.436328 7.84C0.436328 8.42 0.536328 8.96 0.536328 9.54C0.536328 9.84 0.516328 10.14 0.516328 10.44C0.516328 11.18 0.736328 12 0.896328 12.7C1.09633 12.86 1.09633 13.1 1.11633 13.3C1.11633 14.2 1.79633 14.98 2.35633 14.98C2.45633 14.98 2.57633 14.86 2.65633 14.86C2.77633 14.86 2.85633 14.96 2.97633 14.96C3.37633 14.96 3.93633 14.14 3.97633 13.96C4.09633 13.62 4.17633 13.24 4.33633 12.9C4.47633 12.58 4.49633 12.14 4.69633 11.86C4.65633 11.9 5.25633 10.2 5.69633 10.2C5.67633 10.2 6.11633 11.38 6.17633 11.58C6.25633 11.8 6.35633 12.22 6.35633 12.32C6.35633 12.4 6.33633 12.48 6.33633 12.56C6.33633 12.82 6.67633 13.12 6.67633 13.34C6.71633 14 6.79633 15.5 7.05633 15.76C7.35633 16.08 7.45633 17.04 7.65633 17.1C7.99633 17.3 7.97633 17.86 8.45633 18.14C8.91633 18.42 8.91633 18.6 9.67633 18.6C10.0963 18.6 10.4763 18.18 10.7163 18.12C11.2763 17.96 11.6163 17.52 11.8963 17.06C12.0763 16.76 12.3563 16.52 12.4763 16.18C12.7563 15.64 12.9763 14.8 12.9763 14.24C12.9763 14.2 12.9563 14.18 12.9563 14.14C12.9563 13.86 13.1763 13.58 13.3563 13.4ZM12.8963 11.52C12.8563 11.52 12.8563 11.5 12.8563 11.42C12.8563 11.4 12.8563 11.4 12.8963 11.4V11.52ZM13.0963 7.96C13.0963 7.98 13.0963 7.98 13.0963 7.98C13.0963 7.98 13.0963 7.98 13.0963 7.96C13.0963 7.94 13.0963 7.9 13.0563 7.86C12.9963 7.92 12.9563 7.96 12.9563 8.08C12.9563 8.16 12.9963 8.2 13.0363 8.24C13.0963 8.18 13.0763 8.14 13.0963 7.96ZM13.5163 11.56C13.5163 11.54 13.4963 11.52 13.4763 11.52C13.4563 11.52 13.4163 11.58 13.4163 11.6C13.4163 11.6 13.4363 11.66 13.4763 11.66C13.5163 11.66 13.5163 11.62 13.5163 11.56ZM16.8654 8.94C16.8854 9.02 16.9054 9.1 16.9054 9.18C16.9054 9.26 16.8654 9.24 16.8454 9.26C16.8254 9.24 16.8054 9.2 16.8054 9.16C16.8054 9.08 16.8454 9 16.8854 8.94C16.5854 9.36 16.6654 10 16.3854 10.34C16.1254 10.66 16.1454 11.58 16.1454 11.98C16.1454 12.14 16.2854 12.3 16.2854 12.44C16.2854 12.54 16.1854 12.66 16.1854 12.76C16.1854 12.9 16.2654 13.02 16.2654 13.14C16.2654 13.22 16.2054 13.3 16.2054 13.36C16.2054 13.52 16.4254 13.68 16.4254 13.86C16.4254 13.96 16.3854 14.06 16.3854 14.14C16.3854 14.2 16.6254 14.9 16.9654 15.08C17.0454 15.12 17.1054 15.22 17.1454 15.32C17.5654 15.94 18.1054 15.92 18.8854 16C19.0054 15.92 19.1254 15.84 19.2654 15.76C19.3254 15.8 19.4054 15.82 19.4654 15.82C19.8054 15.82 21.1254 14.2 21.4454 14.08C21.7854 13.96 22.0854 13.06 22.6454 12.78C22.8654 12.78 22.9654 12.46 22.9654 12.3C22.9654 12.1 24.0454 11.2 24.0454 11.2C24.2454 11.06 24.8454 10.82 24.8454 10.56C24.8454 10.4 24.6454 10.34 24.5254 10.34C23.9054 10.34 23.0654 11.3 22.8454 11.5C21.8054 12.42 20.7454 13.26 19.6654 14.14C19.4454 14.32 19.0854 14.56 18.7854 14.56C18.0654 14.56 18.0054 12.88 18.0054 11.98C18.0054 11.66 18.0254 11.1 18.4054 11.1C18.6854 11.1 18.9654 11.18 19.2454 11.18C20.3654 11.18 21.5054 10.14 21.7254 9.72C21.8254 9.52 21.9654 9.4 22.1054 9.26C22.2654 9.08 22.3454 8.76 22.5454 8.66C22.7454 8.52 22.8254 8.32 22.8254 8.08C22.8254 7.96 22.8054 7.84 22.8054 7.7C22.8054 7.64 22.8254 7.56 22.8254 7.5C22.8254 6.42 21.1254 5.66 20.0854 5.66C19.7654 5.66 19.6254 5.96 19.3654 6.06C18.9254 6.24 18.6654 6.64 18.3654 6.94C18.2254 7.38 17.5454 7.56 17.3654 8.12C17.2654 8.44 17.0654 8.7 16.8654 8.94ZM18.7654 9.94C18.4454 9.9 18.3454 9.9 18.3454 9.76C18.3454 9.22 19.4054 7.1 20.7254 7.1C21.1254 7.1 21.2054 7.66 21.2054 8C21.2054 9.28 19.4854 9.82 18.7654 9.94ZM29.0309 13.42C29.4109 13.46 29.2709 13.66 29.3309 13.8C29.3309 14.64 30.0709 15.08 30.7309 15.08C31.6709 15.08 31.6309 15.06 32.6309 13.24C33.0309 12.4 33.7309 10.86 33.8709 10.82C34.3709 10.68 34.2909 10.36 34.4109 9.86C34.4509 9.68 35.1709 9.04 35.2109 9.04C35.4709 8.9 35.5309 8.72 35.6709 8.4C36.1709 8.4 35.9309 7.9 36.2509 7.84C36.4109 7.82 36.5509 7.78 36.7309 7.74C36.7509 7.96 36.8509 8.16 36.8509 8.4C36.6509 8.78 36.5509 8.52 36.5509 9.92C36.5509 10.02 36.5509 10.14 36.5709 10.24C36.5709 10.46 36.2709 10.82 36.2509 11.22C36.1509 12.92 35.9709 14.9 35.9709 16.46C35.9709 16.74 36.2709 16.84 36.2709 17.18C36.2709 17.38 36.2509 17.58 36.2509 17.78C36.2709 18.12 36.2309 18.48 36.5309 18.74C36.6309 18.8 36.5509 19.04 36.7509 19.22C37.0909 19.54 37.3309 19.86 37.8309 19.86C38.1309 19.86 38.6109 19.86 38.7709 19.5C38.9109 19.18 39.1909 18.94 39.2509 18.52C39.2509 18.1 39.2509 17.42 39.4109 17.12C39.6109 16.86 39.4909 16.54 39.6309 16.34C39.8909 15.84 39.9909 15.1 40.1309 14.54C40.2709 13.96 40.5909 13.42 40.6709 12.82C40.6709 12.2 41.7309 10.92 41.8709 10.7C41.8909 10.68 41.9109 10.64 41.9109 10.6C41.9109 10.4 41.6109 10.3 41.4709 10.3C41.0509 10.3 40.4709 10.96 40.3309 11.48C40.3109 11.56 40.2709 11.68 40.1909 11.74C39.6309 12.26 39.7309 12.76 39.5309 13.52C39.4709 13.78 39.2709 13.8 39.2509 14C38.9909 14.72 38.7909 15.44 38.5709 16.22C38.5709 16.66 38.1109 18.16 37.8109 18.16C37.7509 18.16 37.5309 17.46 37.5309 17.38C37.5309 17.3 37.5509 17.2 37.5709 17.12C37.4509 17 37.4109 16.86 37.4109 16.72C37.4109 16.6 37.4309 16.44 37.4309 16.3C37.4309 16 37.4109 15.7 37.4109 15.38C37.4109 14.46 37.6109 13.44 37.6109 12.52C37.6109 12.1 37.9309 11.68 37.9309 11.38C37.9309 9.88 38.5109 8.36 38.5109 7.06C38.5109 6.12 37.8909 5.9 37.4509 5.9C36.9509 5.9 36.7509 6.24 36.4109 6.38C35.7909 6.62 35.4509 7.26 34.9309 7.52C34.4709 6.92 34.0109 6.5 33.0909 6.5C31.7109 6.5 31.4709 7.5 30.9109 8.3C30.2109 9.3 30.0709 9.96 29.8309 10.58C29.5909 11.2 29.3309 11.86 29.3309 12.52C29.3109 12.7 29.1909 12.78 29.0309 12.82V13.42ZM34.4709 7.92C34.4709 7.98 34.4909 8.02 34.4909 8.06C34.4909 8.26 34.1909 8.66 34.1909 8.66C33.7509 9 33.5109 9.52 33.0909 9.86C32.8709 10.04 32.7109 10.28 32.5709 10.5C32.2909 10.96 31.2509 12.36 31.1709 12.36C31.0709 12.36 31.0509 12.3 31.0509 12.22C31.3509 10.7 32.2909 8.76 33.5509 7.92C33.6909 7.84 33.8109 7.8 33.9709 7.8C34.1109 7.8 34.3309 7.86 34.4709 7.92ZM40.6851 11.56C40.6451 11.72 40.5651 11.98 40.5651 12.16C40.5651 12.26 40.6651 12.38 40.6651 12.5C40.6651 12.54 40.6451 12.56 40.6451 12.58C40.3851 12.9 40.3051 13.58 40.3051 13.96C40.3051 14.3 40.3851 14.58 40.3851 14.86C40.3851 15.06 40.3451 15.22 40.3451 15.4C40.3451 16.06 40.5251 16.74 41.0251 16.74C41.7851 16.74 42.1451 15 42.1251 15.04C42.4851 14.4 42.4651 13.66 42.7451 12.98C43.3251 11.6 43.1851 11.16 43.5251 10.66C43.7251 10.36 43.8251 10.02 43.9651 9.7C44.3451 8.76 45.3651 7.2 46.1651 6.72C46.1851 6.72 46.1851 6.7 46.2051 6.7C46.5051 6.7 46.2651 9.12 47.1051 9.12C47.4051 9.12 47.3051 8.52 47.6651 8.26C48.2451 7.84 48.4051 7.54 48.4051 6.78C48.4051 6.06 48.1051 4.98 47.0251 4.98C46.3451 4.98 45.4651 5.8 45.3851 6.12C45.3251 6.38 44.7651 6.88 44.4251 7.34C44.4451 7.16 44.4851 7.06 44.4851 6.94C44.3651 6.5 44.3051 5.78 43.6851 5.78C43.4651 5.78 43.2651 5.86 43.0451 5.86C43.0051 5.86 42.9451 5.84 42.9051 5.84C42.7451 5.84 42.2251 6.84 42.1251 7.08C41.8051 7.78 41.2851 8.56 41.2451 9.3C41.2451 9.52 41.0251 9.9 41.0251 10.24C41.0251 10.34 41.0251 10.42 41.0451 10.52C40.8851 10.68 40.7651 11.4 40.5251 11.44L40.6851 11.56ZM43.2451 9.88H43.1851L43.2251 9.82L43.2451 9.88ZM49.7365 8.94C49.7565 9.02 49.7765 9.1 49.7765 9.18C49.7765 9.26 49.7365 9.24 49.7165 9.26C49.6965 9.24 49.6765 9.2 49.6765 9.16C49.6765 9.08 49.7165 9 49.7565 8.94C49.4565 9.36 49.5365 10 49.2565 10.34C48.9965 10.66 49.0165 11.58 49.0165 11.98C49.0165 12.14 49.1565 12.3 49.1565 12.44C49.1565 12.54 49.0565 12.66 49.0565 12.76C49.0565 12.9 49.1365 13.02 49.1365 13.14C49.1365 13.22 49.0765 13.3 49.0765 13.36C49.0765 13.52 49.2965 13.68 49.2965 13.86C49.2965 13.96 49.2565 14.06 49.2565 14.14C49.2565 14.2 49.4965 14.9 49.8365 15.08C49.9165 15.12 49.9765 15.22 50.0165 15.32C50.4365 15.94 50.9765 15.92 51.7565 16C51.8765 15.92 51.9965 15.84 52.1365 15.76C52.1965 15.8 52.2765 15.82 52.3365 15.82C52.6765 15.82 53.9965 14.2 54.3165 14.08C54.6565 13.96 54.9565 13.06 55.5165 12.78C55.7365 12.78 55.8365 12.46 55.8365 12.3C55.8365 12.1 56.9165 11.2 56.9165 11.2C57.1165 11.06 57.7165 10.82 57.7165 10.56C57.7165 10.4 57.5165 10.34 57.3965 10.34C56.7765 10.34 55.9365 11.3 55.7165 11.5C54.6765 12.42 53.6165 13.26 52.5365 14.14C52.3165 14.32 51.9565 14.56 51.6565 14.56C50.9365 14.56 50.8765 12.88 50.8765 11.98C50.8765 11.66 50.8965 11.1 51.2765 11.1C51.5565 11.1 51.8365 11.18 52.1165 11.18C53.2365 11.18 54.3765 10.14 54.5965 9.72C54.6965 9.52 54.8365 9.4 54.9765 9.26C55.1365 9.08 55.2165 8.76 55.4165 8.66C55.6165 8.52 55.6965 8.32 55.6965 8.08C55.6965 7.96 55.6765 7.84 55.6765 7.7C55.6765 7.64 55.6965 7.56 55.6965 7.5C55.6965 6.42 53.9965 5.66 52.9565 5.66C52.6365 5.66 52.4965 5.96 52.2365 6.06C51.7965 6.24 51.5365 6.64 51.2365 6.94C51.0965 7.38 50.4165 7.56 50.2365 8.12C50.1365 8.44 49.9365 8.7 49.7365 8.94ZM51.6365 9.94C51.3165 9.9 51.2165 9.9 51.2165 9.76C51.2165 9.22 52.2765 7.1 53.5965 7.1C53.9965 7.1 54.0765 7.66 54.0765 8C54.0765 9.28 52.3565 9.82 51.6365 9.94ZM73.242 9.8C73.262 9.72 73.282 9.66 73.282 9.6C73.282 9.4 73.142 9.3 72.962 9.3C72.382 9.3 71.942 10.38 71.382 10.88C71.202 11.4 71.202 11.9 70.882 12.36C70.442 13 70.122 13.6 70.002 14.32C69.942 14.6 69.662 14.56 69.662 14.86C69.662 14.98 68.882 16.06 68.722 16.06C68.622 16.06 68.302 15.04 68.302 15.06C68.302 14.74 68.482 14.24 68.502 13.88C68.582 12.56 68.762 11.18 68.762 9.88C68.762 8.88 68.702 8.58 67.602 8.18C67.522 8.16 67.442 8.14 67.382 8.14C67.142 8.14 66.922 8.42 66.642 8.48C66.282 8.56 65.982 8.72 65.862 9.1C65.862 9.38 65.362 9.38 65.282 9.46C64.982 9.72 64.222 10.84 63.922 10.84C63.742 10.84 63.762 10.64 63.762 10.58C63.762 9.56 64.502 8.86 64.502 7.82C64.502 7.28 64.962 6.34 64.982 6.34C64.982 6.12 65.082 5.9 65.082 5.68C65.082 5.62 65.062 5.56 65.062 5.5C65.062 5.3 65.322 5.08 65.322 4.76C65.322 4.16 65.842 2.8 65.802 2.84C66.222 2.28 66.502 1.12 66.502 0.859999C66.502 0.339999 66.022 0.399999 65.502 0.18C65.422 0.139999 65.362 0.119999 65.322 0.119999C65.182 0.119999 64.682 2.42 64.702 2.5L64.722 2.48C64.462 2.9 64.482 3.24 64.402 3.7C64.222 4.16 63.942 4.7 63.942 5.14C63.942 5.22 63.962 5.28 63.962 5.34C63.962 5.5 63.822 5.64 63.822 5.78C63.822 5.86 63.942 5.98 63.942 6.08C63.942 6.18 63.682 6.36 63.622 6.6C63.522 6.96 63.342 7.34 63.342 7.66C63.342 7.74 63.362 7.86 63.362 7.94C63.362 8.32 63.062 8.62 63.062 9.04C63.062 9.46 62.762 9.88 62.762 10.18C62.762 10.26 62.822 10.38 62.822 10.46C62.822 10.72 62.602 10.92 62.602 11.18C62.602 11.26 62.622 11.32 62.622 11.4C62.622 11.6 62.482 11.74 62.482 11.92C62.482 12.78 61.902 13.48 61.902 14.3C61.902 14.68 63.002 15.18 63.302 15.18C63.402 15.18 64.102 13.36 64.242 12.9C64.442 12.2 65.482 10.96 65.462 11C65.482 10.8 66.722 9.66 67.142 9.66C67.282 9.66 67.322 10.5 67.322 10.78C67.322 10.96 67.222 11.16 67.222 11.36C67.222 11.7 67.442 12.06 67.442 12.42C67.442 12.88 67.422 13.32 67.422 13.74C67.422 13.96 67.302 14.14 67.302 14.32C67.302 14.56 67.482 14.74 67.542 15.04C67.722 16.74 68.482 17.2 69.262 17.2C69.682 17.2 69.902 15.96 70.022 15.84C70.242 15.62 70.142 15.24 70.282 15C70.482 14.64 70.482 14.22 70.722 13.88C70.922 13.58 71.142 13.12 71.142 12.72C71.142 12.62 71.622 12.04 71.782 11.74C72.182 10.98 72.662 10.44 73.242 9.8ZM71.677 11.34C71.677 11.78 71.757 12.22 71.757 12.68C71.757 13.26 72.277 13.98 72.457 14.38C72.757 15.06 73.617 15.8 74.277 15.8C74.737 15.8 75.517 15.52 75.737 15.12C75.837 14.82 76.237 14.54 76.237 14.32C76.277 14.06 76.617 13.78 76.777 13.44C76.877 13.26 76.817 13.02 76.997 12.9C77.217 12.72 77.417 12.12 77.477 11.98C77.577 11.56 78.157 11.08 78.157 10.78C78.157 10.54 77.937 10.42 77.677 10.42C77.357 10.42 77.077 10.66 76.997 11.06C76.717 12.36 75.977 13.24 75.117 14.26C75.077 14.3 75.037 14.3 74.997 14.3C74.477 14.3 74.457 12.1 74.457 11.72C74.457 11.68 74.457 11.64 74.477 11.62C74.617 11.26 74.497 10.88 74.637 10.52C74.677 10.04 74.737 9.56 74.737 9.06C74.737 8.34 74.377 6.86 73.837 6.7C73.537 6.62 73.157 6.48 72.877 6.48C72.257 6.48 71.677 10.84 71.677 11.34ZM73.177 3.62C73.177 3.98 73.317 4.6 73.797 4.6C74.317 4.6 74.557 4.06 74.557 3.6C74.557 3.1 74.017 3.12 73.557 3.02C73.217 3.02 73.177 3.42 73.177 3.62ZM77.1304 11.56C77.0904 11.72 77.0104 11.98 77.0104 12.16C77.0104 12.26 77.1104 12.38 77.1104 12.5C77.1104 12.54 77.0904 12.56 77.0904 12.58C76.8304 12.9 76.7504 13.58 76.7504 13.96C76.7504 14.3 76.8304 14.58 76.8304 14.86C76.8304 15.06 76.7904 15.22 76.7904 15.4C76.7904 16.06 76.9704 16.74 77.4704 16.74C78.2304 16.74 78.5904 15 78.5704 15.04C78.9304 14.4 78.9104 13.66 79.1904 12.98C79.7704 11.6 79.6304 11.16 79.9704 10.66C80.1704 10.36 80.2704 10.02 80.4104 9.7C80.7904 8.76 81.8104 7.2 82.6104 6.72C82.6304 6.72 82.6304 6.7 82.6504 6.7C82.9504 6.7 82.7104 9.12 83.5504 9.12C83.8504 9.12 83.7504 8.52 84.1104 8.26C84.6904 7.84 84.8504 7.54 84.8504 6.78C84.8504 6.06 84.5504 4.98 83.4704 4.98C82.7904 4.98 81.9104 5.8 81.8304 6.12C81.7704 6.38 81.2104 6.88 80.8704 7.34C80.8904 7.16 80.9304 7.06 80.9304 6.94C80.8104 6.5 80.7504 5.78 80.1304 5.78C79.9104 5.78 79.7104 5.86 79.4904 5.86C79.4504 5.86 79.3904 5.84 79.3504 5.84C79.1904 5.84 78.6704 6.84 78.5704 7.08C78.2504 7.78 77.7304 8.56 77.6904 9.3C77.6904 9.52 77.4704 9.9 77.4704 10.24C77.4704 10.34 77.4704 10.42 77.4904 10.52C77.3304 10.68 77.2104 11.4 76.9704 11.44L77.1304 11.56ZM79.6904 9.88H79.6304L79.6704 9.82L79.6904 9.88ZM85.6418 11.34C85.6418 11.78 85.7218 12.22 85.7218 12.68C85.7218 13.26 86.2418 13.98 86.4218 14.38C86.7218 15.06 87.5818 15.8 88.2418 15.8C88.7018 15.8 89.4818 15.52 89.7018 15.12C89.8018 14.82 90.2018 14.54 90.2018 14.32C90.2418 14.06 90.5818 13.78 90.7418 13.44C90.8418 13.26 90.7818 13.02 90.9618 12.9C91.1818 12.72 91.3818 12.12 91.4418 11.98C91.5418 11.56 92.1218 11.08 92.1218 10.78C92.1218 10.54 91.9018 10.42 91.6418 10.42C91.3218 10.42 91.0418 10.66 90.9618 11.06C90.6818 12.36 89.9418 13.24 89.0818 14.26C89.0418 14.3 89.0018 14.3 88.9618 14.3C88.4418 14.3 88.4218 12.1 88.4218 11.72C88.4218 11.68 88.4218 11.64 88.4418 11.62C88.5818 11.26 88.4618 10.88 88.6018 10.52C88.6418 10.04 88.7018 9.56 88.7018 9.06C88.7018 8.34 88.3418 6.86 87.8018 6.7C87.5018 6.62 87.1218 6.48 86.8418 6.48C86.2218 6.48 85.6418 10.84 85.6418 11.34ZM87.1418 3.62C87.1418 3.98 87.2818 4.6 87.7618 4.6C88.2818 4.6 88.5218 4.06 88.5218 3.6C88.5218 3.1 87.9818 3.12 87.5218 3.02C87.1818 3.02 87.1418 3.42 87.1418 3.62ZM98.0352 17.86C98.3352 17.6 98.5752 16.94 98.6352 16.9C98.8352 16.8 98.8352 16.66 98.8352 16.44C98.8352 16.18 99.2352 15.94 99.2352 15.54C99.2352 15.42 99.1952 15.28 99.1952 15.16C99.1952 15.18 99.4552 14.12 99.4752 14.1C99.7152 13.84 99.6552 13.44 99.9752 13.12C100.155 12.98 100.015 12.68 100.135 12.5C100.395 12.34 101.055 11.36 101.055 11C101.055 10.86 100.955 10.78 100.815 10.78C100.035 10.78 99.9152 11.72 99.5352 12.12C99.3352 12.34 99.2952 12.5 99.2752 12.78C99.2752 12.92 99.0152 12.9 98.9552 13.08C98.6352 13.74 97.8952 15.6 97.6352 15.6C97.4352 15.6 97.4752 14.44 97.4752 13.84C97.4752 13.2 97.4952 12.6 97.6552 12.32C97.6552 12.32 97.6552 12.32 97.6552 12.3C97.6552 12.26 97.5752 12.1 97.5752 11.98C97.6752 11.9 97.8952 11.84 97.8952 11.72C97.8952 11.62 97.6752 11.46 97.6752 11.32C97.6752 11.24 97.7352 11.12 97.7352 11.04C97.7352 10.96 97.6952 10.88 97.6952 10.82C97.6952 10.48 98.1152 10.34 98.1152 9.94C98.1152 7.98 98.1952 7.28 97.2752 7.28C96.9352 7.28 96.5152 7.34 96.2952 7.66C96.1952 7.82 95.4352 8.14 95.1152 8.52C94.8752 8.8 94.6752 9.18 94.4552 9.42C93.6552 9.98 92.9952 11.52 92.4952 11.52C92.4552 11.46 92.4152 11.42 92.4152 11.36C92.4152 10.96 92.7352 10.52 92.7952 10.14C92.8352 9.26 92.8752 8.38 92.8752 7.5C92.8752 7.04 92.8552 6.54 92.2552 6.54C91.8952 6.54 91.2752 6.78 91.2752 7.06C91.2752 7.76 90.9952 8.52 90.9952 9.2C90.9952 9.32 91.0152 9.42 91.0152 9.52C91.0152 9.66 90.9152 9.76 90.9152 9.88C90.9152 10.04 90.9952 10.2 90.9952 10.36C90.9952 10.84 90.9552 11.22 90.9552 11.78C90.9552 12.66 91.0352 13.76 91.8152 13.76C92.9752 13.76 93.4752 12.88 94.0752 11.96C94.3552 11.54 94.9552 10.62 94.9952 10.28C95.0552 9.78 96.1952 8.7 96.3752 8.7C96.4152 8.7 96.4352 8.82 96.4352 8.86C96.4352 9.04 96.3552 9.26 96.3552 9.44C96.3552 9.76 96.4352 10.08 96.4352 10.4C96.4352 10.56 96.4152 11.04 96.1752 11.2C96.1352 11.24 96.0952 11.28 96.0952 11.32C96.0952 11.42 96.2152 11.48 96.2152 11.6C96.1752 11.84 96.0552 12.1 96.0552 12.32C96.0552 12.48 96.2552 12.56 96.2552 12.68C96.2552 12.74 96.2152 12.82 96.2152 12.88C96.2152 12.96 96.2352 13.02 96.2352 13.1C96.2352 13.18 95.8752 13.74 95.8752 14.06C95.8752 14.32 95.9552 14.56 95.9552 14.84C95.9552 15.02 95.9352 15.22 95.9352 15.42C95.9752 16.48 96.3352 17.96 97.3952 17.96C97.5552 17.86 97.6352 17.82 97.7352 17.82C97.7952 17.82 97.8952 17.84 98.0352 17.86ZM96.5752 11.82C96.5552 11.86 96.5352 11.88 96.5352 11.92C96.4952 11.88 96.4952 11.86 96.4952 11.8C96.5152 11.78 96.5352 11.78 96.5352 11.76C96.5552 11.78 96.5752 11.8 96.5752 11.82ZM97.2952 14.88L97.3152 14.94H97.2752L97.2952 14.88ZM107.371 14.98C107.371 15 107.371 15 107.371 15C107.371 14.94 107.531 14.64 107.571 14.6C107.711 14.44 107.671 14.2 107.791 14.06C108.571 13.04 108.491 13.48 108.771 13.2C109.131 12.98 109.171 12.76 109.791 12.4C110.071 12.24 110.431 12.3 110.671 12.04C110.811 11.9 111.371 12.08 111.371 11.66C111.371 11.22 110.671 11 110.471 11C109.971 11 108.991 11.5 108.871 11.6C108.771 11.7 108.651 11.74 108.531 11.74C108.371 11.74 108.291 11.72 108.291 11.46C108.291 11.2 108.571 10.96 108.571 10.7C108.571 9.56 109.331 8.22 109.331 7.42C109.331 6.48 108.171 6.24 107.571 6.24C107.271 6.24 107.411 6.38 107.031 6.76C106.951 6.88 106.871 6.94 106.771 6.94C106.451 6.94 106.131 6.48 105.691 6.38C105.311 6.3 104.971 6.24 104.571 6.24C103.571 6.24 102.171 7.36 101.971 7.94C101.831 8.34 101.291 8.58 101.171 8.98C101.051 9.36 100.631 9.46 100.511 9.78C100.371 10.12 100.211 10.48 100.131 10.84C100.051 11.16 99.8512 11.4 99.8512 11.92C99.8512 13.1 100.571 13.82 101.791 13.82C102.471 13.68 103.111 12.42 103.191 12.08C103.391 11.78 103.531 11.74 103.751 11.52C103.931 11.34 103.991 11.02 104.291 10.92C104.631 10.82 104.811 10.26 105.251 10.14C105.331 10.1 105.371 9.98 105.431 9.9L105.411 9.88V9.92C105.611 9.82 105.731 9.22 105.851 9.22C105.871 9.24 105.911 9.26 105.931 9.26C106.331 9.26 106.531 9.06 106.671 8.68C106.691 8.62 106.731 8.6 106.791 8.6C106.951 8.6 106.931 8.96 106.931 9.16C106.931 9.58 106.791 10 106.791 10.4C106.791 10.58 106.831 10.76 106.831 10.92C106.831 11.2 106.671 11.5 106.671 11.7C106.671 11.86 106.791 12.04 106.791 12.24C106.791 12.78 106.291 13.64 106.131 14.08C106.071 14.06 106.011 14.04 105.951 14.04C105.771 14.04 105.091 15 105.051 15.14C104.871 15.62 104.151 15.88 103.971 16.54C103.951 16.58 103.931 16.64 103.891 16.66C103.511 16.9 103.271 17.22 103.151 17.66C102.931 18.08 102.691 18.24 102.591 18.7C102.571 18.76 102.531 18.86 102.491 18.9C102.071 19.18 102.351 19.74 101.991 20.02C101.671 20.26 101.251 21.94 101.251 22.2C101.251 22.66 101.111 23.1 101.111 23.56C101.111 25.6 101.731 25.96 102.791 26.66C102.991 26.78 103.231 26.8 103.451 26.8C104.271 26.8 105.011 26.2 105.011 25.3C105.011 25.14 105.211 25 105.211 24.84C105.211 24.8 105.171 24.72 105.171 24.66C105.171 24.32 105.611 23.78 105.631 23.3C105.631 23.16 105.791 23.08 105.791 22.94C105.791 22.86 105.711 22.78 105.711 22.7C105.711 22.54 106.191 21.88 106.191 21.52C106.171 21.5 106.171 21.46 106.171 21.44C106.171 21.16 106.651 19.76 106.651 19.24C106.651 19.06 106.551 18.92 106.551 18.66C106.551 18.38 106.871 18.18 106.871 18.12C106.891 17.96 106.991 17.8 106.991 17.62C106.991 17.54 106.911 17.44 106.911 17.34C106.911 17.12 107.191 17.02 107.191 16.86C107.191 16.76 106.971 16.72 106.971 16.62C106.971 16.46 107.211 16.32 107.211 16.2C107.211 16.14 107.151 16.08 107.011 15.98C107.251 15.9 107.571 15.42 107.571 15.22C107.571 15.14 107.531 15.04 107.371 14.98ZM105.131 22.74C104.571 23.2 104.731 23.84 104.371 24.28C104.231 24.46 104.331 24.72 104.151 24.88C103.991 25.04 103.871 25.24 103.711 25.44C103.471 25.5 103.211 25.58 102.951 25.64C102.371 25.4 102.231 24.62 102.231 24.04C102.231 21.04 104.011 18.9 105.371 16.54C105.471 16.34 105.891 15.96 105.971 15.96C106.031 15.96 106.211 16.08 106.211 16.16C106.211 16.86 105.931 18.06 105.851 18.2C105.811 18.26 105.791 18.3 105.791 18.32C105.791 18.38 105.971 18.48 105.971 18.58C105.971 18.8 105.731 18.98 105.731 19.34C105.731 20.2 105.291 20.96 105.291 21.72C105.291 21.94 105.051 22.16 105.051 22.34C105.051 22.42 105.071 22.54 105.131 22.74ZM106.271 7.68C106.211 8.2 105.811 7.98 105.651 8.26C105.511 8.52 105.291 8.66 105.071 8.84C104.751 9.1 104.371 9.72 104.171 9.82C103.451 10.18 102.871 11.1 102.051 11.6C102.051 11.6 102.031 11.62 102.011 11.62C101.891 11.62 101.931 11.56 101.891 11.44C101.891 11.3 102.451 10.54 102.631 10.32C102.931 9.96 103.251 9.5 103.251 9.3C103.251 9.12 105.591 7.44 105.951 7.44C106.131 7.44 106.171 7.58 106.271 7.68ZM106.731 17.26C106.751 17.28 106.751 17.28 106.751 17.3C106.751 17.34 106.731 17.38 106.711 17.38C106.711 17.38 106.651 17.34 106.651 17.32C106.651 17.28 106.671 17.26 106.731 17.26ZM104.631 9.76C104.631 9.8 104.611 9.82 104.591 9.82C104.551 9.82 104.551 9.78 104.551 9.74C104.571 9.72 104.591 9.72 104.591 9.7C104.611 9.72 104.611 9.74 104.631 9.76ZM105.431 9.9L105.411 9.88V9.92L105.431 9.9Z" fill="#6E7DFF"/>
</svg>
