<svg width="24" height="25" viewBox="0 0 24 25" fill="none" xmlns="http://www.w3.org/2000/svg">
<path d="M17 1.02734H7C4.23858 1.02734 2 3.26592 2 6.02734V16.0273C2 18.7888 4.23858 21.0273 7 21.0273H17C19.7614 21.0273 22 18.7888 22 16.0273V6.02734C22 3.26592 19.7614 1.02734 17 1.02734Z" stroke="#6E7DFF" stroke-width="2" stroke-linecap="round" stroke-linejoin="round"/>
<path d="M16 10.3972C16.1234 11.2294 15.9813 12.0794 15.5938 12.8262C15.2063 13.573 14.5932 14.1786 13.8416 14.5568C13.0901 14.9351 12.2385 15.0668 11.4078 14.9331C10.5771 14.7994 9.80977 14.4072 9.21485 13.8123C8.61993 13.2174 8.22774 12.45 8.09408 11.6194C7.96042 10.7887 8.09208 9.93705 8.47034 9.18553C8.8486 8.43401 9.4542 7.8209 10.201 7.4334C10.9478 7.0459 11.7978 6.90375 12.63 7.02716C13.4789 7.15304 14.2649 7.54862 14.8717 8.15546C15.4785 8.76231 15.8741 9.54823 16 10.3972Z" stroke="#6E7DFF" stroke-width="2" stroke-linecap="round" stroke-linejoin="round"/>
<path d="M17.5 5.52734H17.51" stroke="#6E7DFF" stroke-width="2" stroke-linecap="round" stroke-linejoin="round"/>
</svg>
