<svg width="24" height="25" viewBox="0 0 24 25" fill="none" xmlns="http://www.w3.org/2000/svg">
<path d="M16 7.02734C17.5913 7.02734 19.1174 7.65948 20.2426 8.7847C21.3679 9.90992 22 11.436 22 13.0273V20.0273H18V13.0273C18 12.4969 17.7893 11.9882 17.4142 11.6131C17.0391 11.2381 16.5304 11.0273 16 11.0273C15.4696 11.0273 14.9609 11.2381 14.5858 11.6131C14.2107 11.9882 14 12.4969 14 13.0273V20.0273H10V13.0273C10 11.436 10.6321 9.90992 11.7574 8.7847C12.8826 7.65948 14.4087 7.02734 16 7.02734V7.02734Z" stroke="#6E7DFF" stroke-width="2" stroke-linecap="round" stroke-linejoin="round"/>
<path d="M6 8.02734H2V20.0273H6V8.02734Z" stroke="#6E7DFF" stroke-width="2" stroke-linecap="round" stroke-linejoin="round"/>
<path d="M4 5.02734C5.10457 5.02734 6 4.13191 6 3.02734C6 1.92277 5.10457 1.02734 4 1.02734C2.89543 1.02734 2 1.92277 2 3.02734C2 4.13191 2.89543 5.02734 4 5.02734Z" stroke="#6E7DFF" stroke-width="2" stroke-linecap="round" stroke-linejoin="round"/>
</svg>
