<svg width="24" height="25" viewBox="0 0 24 25" fill="none" xmlns="http://www.w3.org/2000/svg">
<path d="M23 2.02715C22.0424 2.70262 20.9821 3.21925 19.86 3.55715C19.2577 2.86466 18.4573 2.37384 17.567 2.15107C16.6767 1.92831 15.7395 1.98434 14.8821 2.3116C14.0247 2.63886 13.2884 3.22155 12.773 3.98086C12.2575 4.74018 11.9877 5.63948 12 6.55715V7.55715C10.2426 7.60271 8.50127 7.21296 6.93101 6.42259C5.36074 5.63222 4.01032 4.21598 3 2.77734C3 2.77734 -1 12.0271 8 16.0271C5.94053 17.4251 3.48716 18.1261 1 18.0271C10 23.0271 21 18.0271 21 6.52715C20.9991 6.2486 20.9723 5.97074 20.92 5.69715C21.9406 4.69064 22.6608 3.41986 23 2.02715Z" stroke="#6E7DFF" stroke-width="2" stroke-linecap="round" stroke-linejoin="round"/>
</svg>
