<svg width="48" height="48" viewBox="0 0 48 48" fill="none" xmlns="http://www.w3.org/2000/svg">
<g clip-path="url(#clip0)">
<path d="M1.40625 48H15.7572C16.5338 48 17.1635 47.3704 17.1635 46.5938V45.027C17.1635 41.776 15.3463 38.9415 12.6744 37.4857C13.6234 36.4782 14.2068 35.1228 14.2068 33.6328C14.2068 30.5312 11.6834 28.0078 8.58178 28.0078C5.48016 28.0078 2.95678 30.5312 2.95678 33.6328C2.95678 35.1228 3.54019 36.4782 4.48912 37.4857C1.81716 38.9415 0 41.776 0 45.027V46.5938C0 47.3704 0.629625 48 1.40625 48V48ZM5.76928 33.6328C5.76928 32.082 7.03097 30.8203 8.58178 30.8203C10.1326 30.8203 11.3943 32.082 11.3943 33.6328C11.3943 35.1836 10.1326 36.4453 8.58178 36.4453C7.03097 36.4453 5.76928 35.1836 5.76928 33.6328ZM8.58178 39.2578C11.5946 39.2578 14.351 41.6197 14.351 45.1875H2.8125C2.8125 41.6382 5.55281 39.2578 8.58178 39.2578Z" fill="white"/>
<path d="M43.5111 37.4857C44.4601 36.4782 45.0435 35.1228 45.0435 33.6328C45.0435 30.5312 42.5201 28.0078 39.4185 28.0078C36.3169 28.0078 33.7935 30.5312 33.7935 33.6328C33.7935 35.1228 34.3769 36.4782 35.3258 37.4857C32.6539 38.9415 30.8368 41.7759 30.8368 45.027V46.5938C30.8368 47.3704 31.4664 48 32.243 48H46.5939C47.3705 48 48.0002 47.3704 48.0002 46.5938V45.027C48.0002 41.776 46.183 38.9415 43.5111 37.4857ZM36.6059 33.6328C36.6059 32.082 37.8676 30.8203 39.4184 30.8203C40.9692 30.8203 42.2309 32.082 42.2309 33.6328C42.2309 35.1836 40.9692 36.4453 39.4184 36.4453C37.8676 36.4453 36.6059 35.1836 36.6059 33.6328ZM45.1877 45.1875H33.6492C33.6492 41.6382 36.3895 39.2578 39.4184 39.2578C42.4311 39.2578 45.1877 41.6194 45.1877 45.1875Z" fill="white"/>
<path d="M32.5819 18.5859V17.0192C32.5819 13.7682 30.7647 10.9337 28.0928 9.47784C29.0417 8.47041 29.6251 7.11497 29.6251 5.625C29.6251 2.52338 27.1017 0 24.0001 0C20.8985 0 18.3751 2.52338 18.3751 5.625C18.3751 7.11497 18.9585 8.47041 19.9074 9.47784C17.2356 10.9337 15.4184 13.7682 15.4184 17.0192V18.5859C15.4184 19.3626 16.048 19.9922 16.8246 19.9922H31.1756C31.9522 19.9922 32.5819 19.3626 32.5819 18.5859ZM21.1876 5.625C21.1876 4.07419 22.4493 2.8125 24.0001 2.8125C25.5509 2.8125 26.8126 4.07419 26.8126 5.625C26.8126 7.17581 25.5509 8.4375 24.0001 8.4375C22.4493 8.4375 21.1876 7.17581 21.1876 5.625ZM29.7694 17.1797H18.2308C18.2308 13.6304 20.9711 11.25 24.0001 11.25C27.0127 11.25 29.7694 13.6116 29.7694 17.1797Z" fill="white"/>
<path d="M29.6811 35.5358C27.8439 36.1394 25.9066 36.4453 23.9232 36.4453C22.0093 36.4453 20.1351 36.1594 18.3528 35.5957C17.6121 35.3618 16.8221 35.772 16.588 36.5124C16.3538 37.2528 16.7642 38.0431 17.5047 38.2773C19.5616 38.9278 21.7211 39.2577 23.9231 39.2577C26.2052 39.2577 28.4378 38.9044 30.5588 38.2078C31.2967 37.9654 31.6983 37.1707 31.456 36.4329C31.2137 35.6951 30.419 35.2933 29.6811 35.5358Z" fill="white"/>
<path d="M11.0371 11.654C9.48408 13.1511 8.1638 14.8915 7.11296 16.827C6.02396 18.8327 5.26908 20.9633 4.86933 23.1596C4.71268 24.0203 5.37314 24.8178 6.25449 24.8178C6.92086 24.8178 7.5128 24.342 7.63636 23.6632C7.98268 21.7607 8.63818 19.9122 9.58458 18.169C10.498 16.4868 11.6433 14.9761 12.989 13.679C13.5481 13.1401 13.5646 12.2498 13.0256 11.6906C12.4865 11.1315 11.5964 11.1151 11.0371 11.654V11.654Z" fill="white"/>
<path d="M36.9627 11.6541C36.4034 11.1151 35.5132 11.1316 34.9742 11.6907C34.4353 12.2499 34.4516 13.1402 35.0108 13.6791C36.3565 14.9763 37.5019 16.4868 38.4152 18.1691C39.3617 19.9124 40.0171 21.7609 40.3634 23.6633C40.5024 24.4265 41.2336 24.9341 41.9987 24.795C42.7628 24.6559 43.2695 23.9237 43.1305 23.1597C42.7307 20.9634 41.9759 18.8328 40.8869 16.8271C39.836 14.8916 38.5157 13.1511 36.9627 11.6541V11.6541Z" fill="white"/>
</g>
<defs>
<clipPath id="clip0">
<rect width="48" height="48" fill="white"/>
</clipPath>
</defs>
</svg>
