<svg width="48" height="48" viewBox="0 0 48 48" fill="none" xmlns="http://www.w3.org/2000/svg">
<path d="M41.6801 9.22011C40.6586 8.19812 39.4457 7.3874 38.1108 6.83428C36.7759 6.28115 35.3451 5.99646 33.9001 5.99646C32.4551 5.99646 31.0243 6.28115 29.6894 6.83428C28.3545 7.3874 27.1416 8.19812 26.1201 9.22011L24.0001 11.3401L21.8801 9.22011C19.8167 7.15673 17.0182 5.99753 14.1001 5.99753C11.182 5.99753 8.3835 7.15673 6.32012 9.22011C4.25673 11.2835 3.09753 14.082 3.09753 17.0001C3.09753 19.9182 4.25673 22.7167 6.32012 24.7801L8.44011 26.9001L24.0001 42.4601L39.5601 26.9001L41.6801 24.7801C42.7021 23.7586 43.5128 22.5457 44.0659 21.2108C44.6191 19.8759 44.9038 18.4451 44.9038 17.0001C44.9038 15.5551 44.6191 14.1243 44.0659 12.7894C43.5128 11.4545 42.7021 10.2416 41.6801 9.22011V9.22011Z" stroke="white" stroke-width="3" stroke-linecap="round" stroke-linejoin="round"/>
</svg>
