<svg width="328" height="240" viewBox="0 0 328 240" fill="none" xmlns="http://www.w3.org/2000/svg">
<g filter="url(#filter0_d)">
<ellipse cx="177.564" cy="208.002" rx="94.8416" ry="0.749407" fill="#C4C4C4" fill-opacity="0.01"/>
</g>
<rect x="48" width="259.128" height="181.19" rx="5" fill="#F1F1F1"/>
<path d="M48 155.377H307.128C307.128 169.633 295.571 181.19 281.315 181.19H73.8129C59.5568 181.19 48 169.633 48 155.377Z" fill="#F5F5F5"/>
<g filter="url(#filter1_d)">
<path d="M133.932 213.081C133.472 212.621 133.516 211.249 134.515 210.5H220.613C221.613 211.249 221.696 212.332 221.196 213.081C220.68 213.856 218.115 214.025 216.783 213.997H138.345C137.013 214.025 134.681 213.831 133.932 213.081Z" fill="url(#paint0_linear)"/>
</g>
<path d="M148.087 181.19C148.087 181.19 145.506 199.759 144.757 201.757C144.007 203.755 140.344 205.92 139.677 206.42C139.011 206.92 136.68 208.585 135.681 209.334C134.681 210.084 133.448 210.947 133.932 211.916C134.348 212.748 137.013 212.859 138.345 212.832H182.394H216.783C218.115 212.859 220.78 212.748 221.196 211.916C221.68 210.947 220.447 210.084 219.448 209.334C218.449 208.585 216.117 206.92 215.451 206.42C214.785 205.92 211.121 203.755 210.372 201.757C209.622 199.759 207.041 181.19 207.041 181.19H182.394H148.087Z" fill="#F5F5F5"/>
<path d="M148.087 181.19C148.087 181.19 145.506 199.759 144.757 201.757C144.007 203.755 140.344 205.92 139.677 206.42C139.011 206.92 136.68 208.585 135.681 209.334C134.681 210.084 133.448 210.947 133.932 211.916C134.348 212.748 137.013 212.859 138.345 212.832H182.394H216.783C218.115 212.859 220.78 212.748 221.196 211.916C221.68 210.947 220.447 210.084 219.448 209.334C218.449 208.585 216.117 206.92 215.451 206.42C214.785 205.92 211.121 203.755 210.372 201.757C209.622 199.759 207.041 181.19 207.041 181.19H182.394H148.087Z" fill="url(#paint1_radial)"/>
<path d="M148.087 181.19C148.087 181.19 145.506 199.759 144.757 201.757C144.007 203.755 140.344 205.92 139.677 206.42C139.011 206.92 136.68 208.585 135.681 209.334C134.681 210.084 133.448 210.947 133.932 211.916C134.348 212.748 137.013 212.859 138.345 212.832H182.394H216.783C218.115 212.859 220.78 212.748 221.196 211.916C221.68 210.947 220.447 210.084 219.448 209.334C218.449 208.585 216.117 206.92 215.451 206.42C214.785 205.92 211.121 203.755 210.372 201.757C209.622 199.759 207.041 181.19 207.041 181.19H182.394H148.087Z" fill="url(#paint2_linear)"/>
<path d="M148.087 181.19C148.087 181.19 145.506 199.759 144.757 201.757C144.007 203.755 140.344 205.92 139.677 206.42C139.011 206.92 136.68 208.585 135.681 209.334C134.681 210.084 133.448 210.947 133.932 211.916C134.348 212.748 137.013 212.859 138.345 212.832H182.394H216.783C218.115 212.859 220.78 212.748 221.196 211.916C221.68 210.947 220.447 210.084 219.448 209.334C218.449 208.585 216.117 206.92 215.451 206.42C214.785 205.92 211.121 203.755 210.372 201.757C209.622 199.759 207.041 181.19 207.041 181.19H182.394H148.087Z" fill="url(#paint3_linear)"/>
<rect x="58.1598" y="10.9924" width="238.809" height="133.559" stroke="#E1E1E1" stroke-width="3"/>
<path d="M182.507 170.569C182.318 171.012 182.095 171.419 181.837 171.793C181.485 172.303 181.197 172.656 180.974 172.852C180.63 173.174 180.261 173.339 179.866 173.348C179.582 173.348 179.24 173.266 178.842 173.1C178.442 172.934 178.075 172.852 177.739 172.852C177.387 172.852 177.009 172.934 176.605 173.1C176.201 173.266 175.875 173.353 175.626 173.362C175.247 173.378 174.869 173.208 174.492 172.852C174.251 172.639 173.95 172.273 173.59 171.755C173.203 171.202 172.885 170.561 172.636 169.83C172.369 169.04 172.235 168.275 172.235 167.534C172.235 166.686 172.415 165.955 172.777 165.342C173.061 164.849 173.438 164.461 173.911 164.176C174.384 163.89 174.895 163.745 175.445 163.736C175.746 163.736 176.14 163.83 176.631 164.016C177.12 164.203 177.434 164.298 177.572 164.298C177.675 164.298 178.024 164.187 178.615 163.966C179.175 163.762 179.647 163.677 180.033 163.711C181.081 163.796 181.869 164.216 182.392 164.972C181.455 165.549 180.991 166.358 181.001 167.394C181.009 168.202 181.297 168.874 181.864 169.408C182.121 169.655 182.408 169.847 182.727 169.983C182.657 170.187 182.584 170.382 182.507 170.569ZM180.103 160.959C180.103 161.592 179.876 162.183 179.422 162.73C178.875 163.381 178.213 163.756 177.495 163.697C177.485 163.621 177.48 163.541 177.48 163.457C177.48 162.85 177.74 162.199 178.203 161.668C178.434 161.398 178.727 161.174 179.083 160.996C179.438 160.82 179.774 160.723 180.09 160.706C180.099 160.791 180.103 160.875 180.103 160.959V160.959Z" fill="#C8C8C8"/>
<mask id="mask0" mask-type="alpha" maskUnits="userSpaceOnUse" x="57" y="9" width="241" height="137">
<rect x="57.1594" y="9.99194" width="240.809" height="135.559" fill="#F5F5F5"/>
</mask>
<g mask="url(#mask0)">
<rect x="57.194" y="9.99194" width="240.809" height="135.559" fill="#F5F5F5"/>
<mask id="mask1" mask-type="alpha" maskUnits="userSpaceOnUse" x="56" y="9" width="243" height="137">
<rect x="56.7153" y="9.49243" width="241.753" height="136.059" fill="#F5F5F5"/>
</mask>
<g mask="url(#mask1)">
<rect x="56.744" y="9.49243" width="241.725" height="136.642"/>
</g>
</g>
<defs>
<filter id="filter0_d" x="0.142471" y="124.672" width="354.843" height="166.659" filterUnits="userSpaceOnUse" color-interpolation-filters="sRGB">
<feFlood flood-opacity="0" result="BackgroundImageFix"/>
<feColorMatrix in="SourceAlpha" type="matrix" values="0 0 0 0 0 0 0 0 0 0 0 0 0 0 0 0 0 0 127 0"/>
<feOffset/>
<feGaussianBlur stdDeviation="41.29"/>
<feColorMatrix type="matrix" values="0 0 0 0 0 0 0 0 0 0 0 0 0 0 0 0 0 0 0.46 0"/>
<feBlend mode="normal" in2="BackgroundImageFix" result="effect1_dropShadow"/>
<feBlend mode="normal" in="SourceGraphic" in2="effect1_dropShadow" result="shape"/>
</filter>
<filter id="filter1_d" x="128.651" y="208.5" width="97.8446" height="13.5" filterUnits="userSpaceOnUse" color-interpolation-filters="sRGB">
<feFlood flood-opacity="0" result="BackgroundImageFix"/>
<feColorMatrix in="SourceAlpha" type="matrix" values="0 0 0 0 0 0 0 0 0 0 0 0 0 0 0 0 0 0 127 0"/>
<feOffset dy="3"/>
<feGaussianBlur stdDeviation="2.5"/>
<feColorMatrix type="matrix" values="0 0 0 0 0 0 0 0 0 0 0 0 0 0 0 0 0 0 0.38 0"/>
<feBlend mode="normal" in2="BackgroundImageFix" result="effect1_dropShadow"/>
<feBlend mode="normal" in="SourceGraphic" in2="effect1_dropShadow" result="shape"/>
</filter>
<linearGradient id="paint0_linear" x1="177.564" y1="212.831" x2="177.564" y2="214.247" gradientUnits="userSpaceOnUse">
<stop offset="0.474551" stop-color="#D4D4D4"/>
<stop offset="1" stop-color="#B4B4B4"/>
</linearGradient>
<radialGradient id="paint1_radial" cx="0" cy="0" r="1" gradientUnits="userSpaceOnUse" gradientTransform="translate(177.564 205.587) rotate(90) scale(22.6487 150.099)">
<stop stop-color="#DBDBDB"/>
<stop offset="1" stop-color="white" stop-opacity="0"/>
</radialGradient>
<linearGradient id="paint2_linear" x1="177.564" y1="181.19" x2="177.564" y2="212.835" gradientUnits="userSpaceOnUse">
<stop stop-color="white" stop-opacity="0"/>
<stop offset="0.541436" stop-color="white"/>
<stop offset="1" stop-color="white" stop-opacity="0"/>
</linearGradient>
<linearGradient id="paint3_linear" x1="177.564" y1="181.19" x2="177.564" y2="203.339" gradientUnits="userSpaceOnUse">
<stop stop-color="#D7D7D7"/>
<stop offset="1" stop-color="white" stop-opacity="0"/>
</linearGradient>
</defs>
</svg>
