<svg width="48" height="48" viewBox="0 0 48 48" fill="none" xmlns="http://www.w3.org/2000/svg">
<g clip-path="url(#clip0)">
<path d="M46.5938 28.7638H45.8857C45.1879 17.8629 36.3814 9.15516 25.4028 8.649C25.4079 8.5425 25.4062 9.13969 25.4062 2.8125H29.1562C29.9329 2.8125 30.5625 2.18288 30.5625 1.40625C30.5625 0.629625 29.9329 0 29.1562 0H18.8438C18.0671 0 17.4375 0.629625 17.4375 1.40625C17.4375 2.18288 18.0671 2.8125 18.8438 2.8125H22.5938C22.5938 9.13997 22.5921 8.5425 22.5972 8.649C11.6393 9.15422 2.81353 17.8405 2.11434 28.7638H1.40625C0.629625 28.7638 0 29.3934 0 30.1701V37.5247C0 38.3013 0.629625 38.9309 1.40625 38.9309H17.6265L15.8322 46.2593C15.6154 47.1451 16.2874 47.9999 17.1982 47.9999H30.8018C31.7182 47.9999 32.3913 47.1351 32.1643 46.2459L30.2977 38.9309H46.5938C47.3704 38.9309 48 38.3013 48 37.5247V30.1701C48 29.3934 47.3704 28.7638 46.5938 28.7638V28.7638ZM23.613 11.4375H24.387C34.2433 11.4375 42.3461 19.0886 43.0673 28.7638H4.93266C5.65388 19.0886 13.7567 11.4375 23.613 11.4375V11.4375ZM18.9903 45.1875L20.5221 38.931H27.3952L28.9917 45.1875H18.9903ZM45.1875 36.1185C44.3887 36.1185 3.42825 36.1185 2.8125 36.1185V31.5764H45.1875V36.1185Z" fill="white"/>
</g>
<defs>
<clipPath id="clip0">
<rect width="48" height="48" fill="white"/>
</clipPath>
</defs>
</svg>
