<svg width="48" height="48" viewBox="0 0 48 48" fill="none" xmlns="http://www.w3.org/2000/svg">
<path d="M39.4023 38.0436L39.4455 38.1188H39.5323H39.5625C44.1321 38.1188 47.85 41.8367 47.85 46.4063V47.8501H0.15V46.4063C0.15 41.8367 3.86791 38.1188 8.4375 38.1188H9.64669H9.7613L9.79142 38.0083L15.0231 18.7983L15.0627 18.653L14.9172 18.614L0.36568 14.715L0.690795 13.5016C3.0554 4.67727 12.1634 -0.739381 21.1748 1.67517C30.1046 4.06788 35.3935 13.2305 33.0011 22.159L32.676 23.3725L17.6339 19.342L17.4896 19.3033L17.4504 19.4475L12.4169 37.9294L12.3653 38.1188H12.5617H25.0909H25.1695L25.2142 38.0542L27.1596 35.2417L27.3223 35.0063H27.0362H24.6012L20.7401 28.5711C20.3831 27.9761 20.576 27.2045 21.171 26.8475C21.7659 26.4905 22.5376 26.6835 22.8945 27.2784L25.9801 32.421L26.0238 32.4938H26.1087H40.9688C41.6626 32.4938 42.225 33.0563 42.225 33.7501C42.225 34.4439 41.6626 35.0063 40.9688 35.0063H37.9151H37.6558L37.7851 35.2311L39.4023 38.0436ZM11.6618 14.9788L11.615 15.128L11.7661 15.1685L22.5758 18.0651L22.727 18.1056L22.7611 17.9529C23.5052 14.6187 23.6789 11.3966 23.2401 8.75798C23.0832 7.81476 22.7788 6.64647 22.2683 5.70966C21.7601 4.77722 21.0232 4.03303 19.9903 4.03303C19.3495 4.03303 18.6406 4.3065 17.9118 4.80631C17.1814 5.30721 16.4204 6.04258 15.6725 6.98512C14.1763 8.87045 12.7216 11.5978 11.6618 14.9788ZM30.6878 20.2387L30.8477 20.2815L30.8747 20.1182C31.7574 14.7665 29.4865 9.67265 25.6178 6.63936L25.26 6.35887L25.3806 6.79718C26.3785 10.425 26.0278 14.8928 25.1854 18.6152L25.1536 18.7558L25.2929 18.7932L30.6878 20.2387ZM14.964 4.01111L15.2858 3.69213L14.8373 3.75609C9.73951 4.48304 5.38927 7.94915 3.55412 12.7974L3.49542 12.9525L3.65558 12.9954L9.04837 14.4404L9.1876 14.4777L9.23042 14.34C10.3602 10.7087 12.291 6.66115 14.964 4.01111ZM30.4559 35.0063H30.3773L30.3325 35.071L28.3872 37.8835L28.2245 38.1188H28.5106H36.288H36.5473L36.418 37.8941L34.8008 35.0816L34.7576 35.0063H34.6708H30.4559ZM2.799 45.1551L2.75853 45.3376H2.94544H45.0546H45.2415L45.201 45.1551C44.6278 42.5704 42.3178 40.6313 39.5625 40.6313H8.4375C5.68223 40.6313 3.37224 42.5704 2.799 45.1551Z" fill="white" stroke="#252525" stroke-width="0.3"/>
<path d="M47.85 5.625C47.85 8.64378 45.3938 11.1 42.375 11.1C39.3562 11.1 36.9 8.64378 36.9 5.625C36.9 2.60622 39.3562 0.15 42.375 0.15C45.3938 0.15 47.85 2.60622 47.85 5.625ZM45.3375 5.625C45.3375 3.99134 44.0087 2.6625 42.375 2.6625C40.7413 2.6625 39.4125 3.99134 39.4125 5.625C39.4125 7.25866 40.7413 8.5875 42.375 8.5875C44.0087 8.5875 45.3375 7.25866 45.3375 5.625Z" fill="white" stroke="#252525" stroke-width="0.3"/>
</svg>
