<svg width="48" height="48" viewBox="0 0 48 48" fill="none" xmlns="http://www.w3.org/2000/svg">
<mask id="path-1-outside-1" maskUnits="userSpaceOnUse" x="0" y="1" width="47" height="47" fill="black">
<rect fill="white" y="1" width="47" height="47"/>
<path d="M42.25 45.5V41.6165C43.6903 41.0092 44.5917 39.5604 44.5 38C44.5 35.9323 43.1545 34.25 41.5 34.25C39.8455 34.25 38.5 35.9323 38.5 38C38.4083 39.5604 39.3097 41.0092 40.75 41.6165V45.5H37V22.25C37.0001 21.9657 36.8395 21.7058 36.5853 21.5788L31 18.7865V14.75C31.0002 14.415 30.7783 14.1206 30.4563 14.0285L20.5 11.1838V2.75C20.5 2.33581 20.1642 2 19.75 2H4.75C4.33581 2 4 2.33581 4 2.75V45.5H1V47H46V45.5H42.25ZM19 45.5H5.5V44H11.5C11.9142 44 12.25 43.6642 12.25 43.25V43.25C12.25 42.8358 11.9142 42.5 11.5 42.5H5.5V39.5H11.5C11.9142 39.5 12.25 39.1642 12.25 38.75V38.75C12.25 38.3358 11.9142 38 11.5 38H5.5V35H11.5C11.9142 35 12.25 34.6642 12.25 34.25V34.25C12.25 33.8358 11.9142 33.5 11.5 33.5H5.5V30.5H11.5C11.9142 30.5 12.25 30.1642 12.25 29.75V29.75C12.25 29.3358 11.9142 29 11.5 29H5.5V26H11.5C11.9142 26 12.25 25.6642 12.25 25.25V25.25C12.25 24.8358 11.9142 24.5 11.5 24.5H5.5V21.5H11.5C11.9142 21.5 12.25 21.1642 12.25 20.75V20.75C12.25 20.3358 11.9142 20 11.5 20H5.5V17H11.5C11.9142 17 12.25 16.6642 12.25 16.25V16.25C12.25 15.8358 11.9142 15.5 11.5 15.5H5.5V12.5H11.5C11.9142 12.5 12.25 12.1642 12.25 11.75V11.75C12.25 11.3358 11.9142 11 11.5 11H5.5V8H11.5C11.9142 8 12.25 7.66421 12.25 7.25V7.25C12.25 6.83579 11.9142 6.5 11.5 6.5H5.5V3.5H19V45.5ZM29.5 45.5H20.5V44H25C25.4142 44 25.75 43.6642 25.75 43.25V43.25C25.75 42.8358 25.4142 42.5 25 42.5H20.5V39.5H25C25.4142 39.5 25.75 39.1642 25.75 38.75V38.75C25.75 38.3358 25.4142 38 25 38H20.5V35H25C25.4142 35 25.75 34.6642 25.75 34.25V34.25C25.75 33.8358 25.4142 33.5 25 33.5H20.5V30.5H25C25.4142 30.5 25.75 30.1642 25.75 29.75V29.75C25.75 29.3358 25.4142 29 25 29H20.5V26H25C25.4142 26 25.75 25.6642 25.75 25.25V25.25C25.75 24.8358 25.4142 24.5 25 24.5H20.5V21.5H25C25.4142 21.5 25.75 21.1642 25.75 20.75V20.75C25.75 20.3358 25.4142 20 25 20H20.5V17H25C25.4142 17 25.75 16.6642 25.75 16.25V16.25C25.75 15.8358 25.4142 15.5 25 15.5H20.5V12.7445L29.5 15.3155V45.5ZM35.5 45.5H31V44H32.5C32.9142 44 33.25 43.6642 33.25 43.25V43.25C33.25 42.8358 32.9142 42.5 32.5 42.5H31V39.5H32.5C32.9142 39.5 33.25 39.1642 33.25 38.75V38.75C33.25 38.3358 32.9142 38 32.5 38H31V35H32.5C32.9142 35 33.25 34.6642 33.25 34.25V34.25C33.25 33.8358 32.9142 33.5 32.5 33.5H31V30.5H32.5C32.9142 30.5 33.25 30.1642 33.25 29.75V29.75C33.25 29.3358 32.9142 29 32.5 29H31V26H32.5C32.9142 26 33.25 25.6642 33.25 25.25V25.25C33.25 24.8358 32.9142 24.5 32.5 24.5H31V20.4635L35.5 22.7135V45.5ZM40.75 39.9275C40.2463 39.415 39.9752 38.7181 40 38C40 36.7805 40.687 35.75 41.5 35.75C42.313 35.75 43 36.7805 43 38C43.0243 38.718 42.7533 39.4147 42.25 39.9275V39.9275C42.0156 39.9275 41.8075 40.0775 41.7334 40.2999L41.5 41L41.5479 40.8562C41.7185 40.3445 41.2815 39.8359 40.75 39.9275V39.9275Z"/>
</mask>
<path d="M42.25 45.5V41.6165C43.6903 41.0092 44.5917 39.5604 44.5 38C44.5 35.9323 43.1545 34.25 41.5 34.25C39.8455 34.25 38.5 35.9323 38.5 38C38.4083 39.5604 39.3097 41.0092 40.75 41.6165V45.5H37V22.25C37.0001 21.9657 36.8395 21.7058 36.5853 21.5788L31 18.7865V14.75C31.0002 14.415 30.7783 14.1206 30.4563 14.0285L20.5 11.1838V2.75C20.5 2.33581 20.1642 2 19.75 2H4.75C4.33581 2 4 2.33581 4 2.75V45.5H1V47H46V45.5H42.25ZM19 45.5H5.5V44H11.5C11.9142 44 12.25 43.6642 12.25 43.25V43.25C12.25 42.8358 11.9142 42.5 11.5 42.5H5.5V39.5H11.5C11.9142 39.5 12.25 39.1642 12.25 38.75V38.75C12.25 38.3358 11.9142 38 11.5 38H5.5V35H11.5C11.9142 35 12.25 34.6642 12.25 34.25V34.25C12.25 33.8358 11.9142 33.5 11.5 33.5H5.5V30.5H11.5C11.9142 30.5 12.25 30.1642 12.25 29.75V29.75C12.25 29.3358 11.9142 29 11.5 29H5.5V26H11.5C11.9142 26 12.25 25.6642 12.25 25.25V25.25C12.25 24.8358 11.9142 24.5 11.5 24.5H5.5V21.5H11.5C11.9142 21.5 12.25 21.1642 12.25 20.75V20.75C12.25 20.3358 11.9142 20 11.5 20H5.5V17H11.5C11.9142 17 12.25 16.6642 12.25 16.25V16.25C12.25 15.8358 11.9142 15.5 11.5 15.5H5.5V12.5H11.5C11.9142 12.5 12.25 12.1642 12.25 11.75V11.75C12.25 11.3358 11.9142 11 11.5 11H5.5V8H11.5C11.9142 8 12.25 7.66421 12.25 7.25V7.25C12.25 6.83579 11.9142 6.5 11.5 6.5H5.5V3.5H19V45.5ZM29.5 45.5H20.5V44H25C25.4142 44 25.75 43.6642 25.75 43.25V43.25C25.75 42.8358 25.4142 42.5 25 42.5H20.5V39.5H25C25.4142 39.5 25.75 39.1642 25.75 38.75V38.75C25.75 38.3358 25.4142 38 25 38H20.5V35H25C25.4142 35 25.75 34.6642 25.75 34.25V34.25C25.75 33.8358 25.4142 33.5 25 33.5H20.5V30.5H25C25.4142 30.5 25.75 30.1642 25.75 29.75V29.75C25.75 29.3358 25.4142 29 25 29H20.5V26H25C25.4142 26 25.75 25.6642 25.75 25.25V25.25C25.75 24.8358 25.4142 24.5 25 24.5H20.5V21.5H25C25.4142 21.5 25.75 21.1642 25.75 20.75V20.75C25.75 20.3358 25.4142 20 25 20H20.5V17H25C25.4142 17 25.75 16.6642 25.75 16.25V16.25C25.75 15.8358 25.4142 15.5 25 15.5H20.5V12.7445L29.5 15.3155V45.5ZM35.5 45.5H31V44H32.5C32.9142 44 33.25 43.6642 33.25 43.25V43.25C33.25 42.8358 32.9142 42.5 32.5 42.5H31V39.5H32.5C32.9142 39.5 33.25 39.1642 33.25 38.75V38.75C33.25 38.3358 32.9142 38 32.5 38H31V35H32.5C32.9142 35 33.25 34.6642 33.25 34.25V34.25C33.25 33.8358 32.9142 33.5 32.5 33.5H31V30.5H32.5C32.9142 30.5 33.25 30.1642 33.25 29.75V29.75C33.25 29.3358 32.9142 29 32.5 29H31V26H32.5C32.9142 26 33.25 25.6642 33.25 25.25V25.25C33.25 24.8358 32.9142 24.5 32.5 24.5H31V20.4635L35.5 22.7135V45.5ZM40.75 39.9275C40.2463 39.415 39.9752 38.7181 40 38C40 36.7805 40.687 35.75 41.5 35.75C42.313 35.75 43 36.7805 43 38C43.0243 38.718 42.7533 39.4147 42.25 39.9275V39.9275C42.0156 39.9275 41.8075 40.0775 41.7334 40.2999L41.5 41L41.5479 40.8562C41.7185 40.3445 41.2815 39.8359 40.75 39.9275V39.9275Z" fill="white"/>
<path d="M42.25 45.5V41.6165C43.6903 41.0092 44.5917 39.5604 44.5 38C44.5 35.9323 43.1545 34.25 41.5 34.25C39.8455 34.25 38.5 35.9323 38.5 38C38.4083 39.5604 39.3097 41.0092 40.75 41.6165V45.5H37V22.25C37.0001 21.9657 36.8395 21.7058 36.5853 21.5788L31 18.7865V14.75C31.0002 14.415 30.7783 14.1206 30.4563 14.0285L20.5 11.1838V2.75C20.5 2.33581 20.1642 2 19.75 2H4.75C4.33581 2 4 2.33581 4 2.75V45.5H1V47H46V45.5H42.25ZM19 45.5H5.5V44H11.5C11.9142 44 12.25 43.6642 12.25 43.25V43.25C12.25 42.8358 11.9142 42.5 11.5 42.5H5.5V39.5H11.5C11.9142 39.5 12.25 39.1642 12.25 38.75V38.75C12.25 38.3358 11.9142 38 11.5 38H5.5V35H11.5C11.9142 35 12.25 34.6642 12.25 34.25V34.25C12.25 33.8358 11.9142 33.5 11.5 33.5H5.5V30.5H11.5C11.9142 30.5 12.25 30.1642 12.25 29.75V29.75C12.25 29.3358 11.9142 29 11.5 29H5.5V26H11.5C11.9142 26 12.25 25.6642 12.25 25.25V25.25C12.25 24.8358 11.9142 24.5 11.5 24.5H5.5V21.5H11.5C11.9142 21.5 12.25 21.1642 12.25 20.75V20.75C12.25 20.3358 11.9142 20 11.5 20H5.5V17H11.5C11.9142 17 12.25 16.6642 12.25 16.25V16.25C12.25 15.8358 11.9142 15.5 11.5 15.5H5.5V12.5H11.5C11.9142 12.5 12.25 12.1642 12.25 11.75V11.75C12.25 11.3358 11.9142 11 11.5 11H5.5V8H11.5C11.9142 8 12.25 7.66421 12.25 7.25V7.25C12.25 6.83579 11.9142 6.5 11.5 6.5H5.5V3.5H19V45.5ZM29.5 45.5H20.5V44H25C25.4142 44 25.75 43.6642 25.75 43.25V43.25C25.75 42.8358 25.4142 42.5 25 42.5H20.5V39.5H25C25.4142 39.5 25.75 39.1642 25.75 38.75V38.75C25.75 38.3358 25.4142 38 25 38H20.5V35H25C25.4142 35 25.75 34.6642 25.75 34.25V34.25C25.75 33.8358 25.4142 33.5 25 33.5H20.5V30.5H25C25.4142 30.5 25.75 30.1642 25.75 29.75V29.75C25.75 29.3358 25.4142 29 25 29H20.5V26H25C25.4142 26 25.75 25.6642 25.75 25.25V25.25C25.75 24.8358 25.4142 24.5 25 24.5H20.5V21.5H25C25.4142 21.5 25.75 21.1642 25.75 20.75V20.75C25.75 20.3358 25.4142 20 25 20H20.5V17H25C25.4142 17 25.75 16.6642 25.75 16.25V16.25C25.75 15.8358 25.4142 15.5 25 15.5H20.5V12.7445L29.5 15.3155V45.5ZM35.5 45.5H31V44H32.5C32.9142 44 33.25 43.6642 33.25 43.25V43.25C33.25 42.8358 32.9142 42.5 32.5 42.5H31V39.5H32.5C32.9142 39.5 33.25 39.1642 33.25 38.75V38.75C33.25 38.3358 32.9142 38 32.5 38H31V35H32.5C32.9142 35 33.25 34.6642 33.25 34.25V34.25C33.25 33.8358 32.9142 33.5 32.5 33.5H31V30.5H32.5C32.9142 30.5 33.25 30.1642 33.25 29.75V29.75C33.25 29.3358 32.9142 29 32.5 29H31V26H32.5C32.9142 26 33.25 25.6642 33.25 25.25V25.25C33.25 24.8358 32.9142 24.5 32.5 24.5H31V20.4635L35.5 22.7135V45.5ZM40.75 39.9275C40.2463 39.415 39.9752 38.7181 40 38C40 36.7805 40.687 35.75 41.5 35.75C42.313 35.75 43 36.7805 43 38C43.0243 38.718 42.7533 39.4147 42.25 39.9275V39.9275C42.0156 39.9275 41.8075 40.0775 41.7334 40.2999L41.5 41L41.5479 40.8562C41.7185 40.3445 41.2815 39.8359 40.75 39.9275V39.9275Z" stroke="white" stroke-width="0.4" mask="url(#path-1-outside-1)"/>
</svg>
