<svg width="48" height="48" viewBox="0 0 48 48" fill="none" xmlns="http://www.w3.org/2000/svg">
<path d="M40 14H7.99999C5.79085 14 3.99998 15.7909 3.99998 18V38C3.99998 40.2092 5.79085 42 7.99999 42H40C42.2091 42 44 40.2092 44 38V18C44 15.7909 42.2091 14 40 14Z" stroke="white" stroke-width="3" stroke-linecap="round" stroke-linejoin="round"/>
<path d="M32 42V10C32 8.93913 31.5786 7.92172 30.8284 7.17157C30.0783 6.42143 29.0609 6 28 6H20C18.9391 6 17.9217 6.42143 17.1716 7.17157C16.4214 7.92172 16 8.93913 16 10V42" stroke="white" stroke-width="3" stroke-linecap="round" stroke-linejoin="round"/>
</svg>
